<svg width="25" height="24" viewBox="0 0 25 24" fill="none" xmlns="http://www.w3.org/2000/svg">
<path d="M15.136 21V13C15.136 12.7348 15.0306 12.4804 14.8431 12.2929C14.6556 12.1053 14.4012 12 14.136 12H10.136C9.87077 12 9.61642 12.1053 9.42888 12.2929C9.24134 12.4804 9.13599 12.7348 9.13599 13V21M3.13599 9.99997C3.13592 9.70904 3.19932 9.42159 3.32177 9.15768C3.44423 8.89378 3.62278 8.65976 3.84499 8.47197L10.845 2.47297C11.206 2.16788 11.6633 2.00049 12.136 2.00049C12.6086 2.00049 13.066 2.16788 13.427 2.47297L20.427 8.47197C20.6492 8.65976 20.8277 8.89378 20.9502 9.15768C21.0727 9.42159 21.1361 9.70904 21.136 9.99997V19C21.136 19.5304 20.9253 20.0391 20.5502 20.4142C20.1751 20.7893 19.6664 21 19.136 21H5.13599C4.60555 21 4.09685 20.7893 3.72177 20.4142C3.3467 20.0391 3.13599 19.5304 3.13599 19V9.99997Z" stroke="#879595" stroke-width="1.5" stroke-linecap="round" stroke-linejoin="round"/>
</svg>
