<svg width="160" height="160" viewBox="0 0 160 160" fill="none" xmlns="http://www.w3.org/2000/svg">
<rect width="160" height="160" rx="37.3333" fill="white"/>
<path d="M132.981 98.6927C130.196 98.6927 127.5 97.9352 124.827 97.5341C122.153 97.1331 119.234 97.1331 116.65 96.2865C114.065 95.4398 111.592 93.9916 109.186 92.7439C106.78 91.4962 104.485 89.9144 102.279 88.3102C100.074 86.706 97.8233 85.0796 95.8849 83.1412C93.9465 81.2028 91.8968 79.2868 90.2703 77.081C88.6439 74.8753 87.2402 72.4468 85.9925 69.996C84.7449 67.5451 84.0096 64.8715 83.163 62.2425C82.3163 59.6134 82.0267 56.9398 81.6034 54.1994C81.18 51.4589 80.623 48.8522 80.623 46.0671" fill="white"/>
<path d="M133.315 114.066C130.553 114.066 127.545 113.442 124.849 113.108C122.153 112.774 119.413 112.484 116.784 111.838C114.155 111.192 111.57 110.212 109.03 109.253C106.49 108.295 103.794 107.56 101.388 106.29C98.9818 105.02 96.4418 103.817 94.2138 102.258C91.9858 100.698 90.0029 98.715 87.9531 96.9103C85.9033 95.1056 84.1209 93.0113 82.3163 90.9615C80.5116 88.9118 78.1499 87.2408 76.5903 84.9905C75.0307 82.7402 74.4291 79.8883 73.1369 77.4598C71.8446 75.0313 69.9731 72.8924 68.9928 70.3079C68.0124 67.7234 67.2995 65.0721 66.6533 62.3985C66.0072 59.7248 66.2523 56.9398 65.9181 54.1994C65.5839 51.4589 65.0938 48.8076 65.0938 46.0449C68.77 44.7303 68.9928 45.8221 72.8918 45.8221C76.7908 45.8221 76.7908 45.5993 80.6898 45.5993C84.5888 45.5993 84.5888 46.29 88.4878 46.29C92.3869 46.29 92.8547 44.1065 96.5087 45.421C96.5087 48.2283 96.7315 51.5481 97.333 54.1771C97.9346 56.8062 98.6698 59.5689 99.8507 61.9974C101.032 64.4259 102.769 66.654 104.463 68.7928C106.156 70.9317 108.362 72.5359 110.501 74.2515C112.639 75.967 114.823 77.4375 117.318 78.6406C119.814 79.8438 122.153 81.1583 124.871 81.7821C127.589 82.406 129.84 82.8961 132.647 82.8961C133.962 86.5501 133.07 86.6615 133.07 90.5605C133.07 94.4595 132.714 94.4595 132.714 98.3585C132.714 102.258 132.714 102.258 133.226 106.134C133.739 110.011 134.63 110.412 133.315 114.088V114.066Z" fill="#1A1F1F"/>
<path d="M27.1963 98.2021C29.9813 98.2021 32.744 98.2689 35.3954 97.8456C38.0467 97.4223 40.6757 96.3083 43.2602 95.4839C45.8447 94.6595 48.3624 93.6124 50.7909 92.3647C53.2194 91.117 55.8039 90.0921 58.0097 88.4657C60.2154 86.8392 62.0646 84.7894 63.9807 82.8511C65.8968 80.9127 67.6792 78.8629 69.3057 76.6572C70.9321 74.4515 72.8036 72.3794 74.0513 69.9286C75.299 67.4778 76.2125 64.8933 77.0591 62.2643C77.9058 59.6352 78.6633 57.0285 79.1089 54.288C79.5545 51.5476 79.3985 48.8517 79.3985 46.0667" fill="white"/>
<path d="M26.5952 114.155C25.2807 110.478 26.8403 110.055 26.8403 106.156C26.8403 102.257 27.3973 102.257 27.3973 98.358C27.3973 94.459 26.6175 94.459 26.6175 90.56C26.6175 86.661 25.2584 86.2154 26.5729 82.5391C29.3802 82.5391 32.8559 83.007 35.4849 82.4055C38.114 81.8039 40.5648 80.0883 43.0156 78.9075C45.4664 77.7266 48.0064 76.5235 50.1452 74.8302C52.2841 73.1369 53.71 70.7084 55.4256 68.5472C57.1412 66.3861 58.9013 64.3586 60.1044 61.8855C61.3076 59.4124 61.9091 56.8056 62.533 54.1097C63.1568 51.4138 64.048 49.1858 64.048 46.3785C67.702 45.064 67.8356 46.5122 71.7124 46.5122C75.5891 46.5122 75.6114 45.4205 79.5104 45.4205C83.4094 45.4205 83.4094 46.2672 87.3084 46.2672C91.2075 46.2672 91.4971 44.5516 95.1733 45.8661C95.1733 48.6288 94.7945 51.5475 94.4603 54.2211C94.1261 56.8948 94.2375 59.7912 93.5914 62.4202C92.9453 65.0493 92.0987 67.7674 91.1183 70.3074C90.138 72.8473 88.4447 75.1421 87.1747 77.5484C85.9048 79.9546 84.9022 82.5837 83.3426 84.834C81.783 87.0843 80.0451 89.2677 78.2404 91.3175C76.4358 93.3673 74.0072 94.8155 71.9574 96.6201C69.9077 98.4248 67.9025 100.252 65.6522 101.811C63.4019 103.371 60.9956 104.619 58.5894 105.911C56.1831 107.203 53.8883 108.718 51.3038 109.699C48.7193 110.679 46.2017 111.748 43.5281 112.417C40.8544 113.085 38.114 113.241 35.3735 113.553C32.6331 113.865 29.3579 114.199 26.5729 114.199L26.5952 114.155Z" fill="#1A1F1F"/>
</svg>
