<svg width="25" height="24" viewBox="0 0 25 24" fill="none" xmlns="http://www.w3.org/2000/svg">
<path fill-rule="evenodd" clip-rule="evenodd" d="M3.32177 9.1572C3.19932 9.4211 3.13592 9.70855 3.13599 9.99948V18.9995C3.13599 19.5299 3.3467 20.0386 3.72177 20.4137C4.09685 20.7888 4.60555 20.9995 5.13599 20.9995H9.13599V21H15.136V20.9995H19.136C19.6664 20.9995 20.1751 20.7888 20.5502 20.4137C20.9253 20.0386 21.136 19.5299 21.136 18.9995V9.99948C21.1361 9.70855 21.0727 9.4211 20.9502 9.1572C20.8277 8.89329 20.6492 8.65928 20.427 8.47148L13.427 2.47248C13.066 2.16739 12.6086 2 12.136 2C11.6633 2 11.206 2.16739 10.845 2.47248L3.84499 8.47148C3.62278 8.65928 3.44423 8.89329 3.32177 9.1572ZM15.136 20.9995V13C15.136 12.4477 14.6883 12 14.136 12H10.136C9.5837 12 9.13599 12.4477 9.13599 13V20.9995H15.136Z" fill="#567C53"/>
</svg>
