<svg width="25" height="24" viewBox="0 0 25 24" fill="none" xmlns="http://www.w3.org/2000/svg">
<path d="M21.1654 18.8626C21.3654 19.3626 21.0654 19.9626 20.5654 20.1626L18.6654 20.8626C18.1654 21.0626 17.5654 20.7626 17.3654 20.2626L11.8654 5.06265C11.6654 4.56265 11.9654 3.96265 12.4654 3.76265L14.3654 3.06265C14.8654 2.86265 15.4654 3.16265 15.6654 3.66265L21.1654 18.8626Z" fill="#567C53"/>
<path d="M7.80273 4C7.80273 3.44772 8.25045 3 8.80273 3H10.8027C11.355 3 11.8027 3.44772 11.8027 4V20C11.8027 20.5523 11.355 21 10.8027 21H8.80273C8.25045 21 7.80273 20.5523 7.80273 20V4Z" fill="#567C53"/>
<path d="M3.80273 4C3.80273 3.44772 4.25045 3 4.80273 3H6.80273C7.35502 3 7.80273 3.44772 7.80273 4V20C7.80273 20.5523 7.35502 21 6.80273 21H4.80273C4.25045 21 3.80273 20.5523 3.80273 20V4Z" fill="#567C53"/>
</svg>
