<svg width="25" height="24" viewBox="0 0 25 24" fill="none" xmlns="http://www.w3.org/2000/svg">
<path d="M7.80273 3V21M4.80273 3H10.8027C11.355 3 11.8027 3.44772 11.8027 4V20C11.8027 20.5523 11.355 21 10.8027 21H4.80273C4.25045 21 3.80273 20.5523 3.80273 20V4C3.80273 3.44772 4.25045 3 4.80273 3ZM21.2027 18.9C21.4027 19.4 21.1027 20 20.6027 20.2L18.7027 20.9C18.2027 21.1 17.6027 20.8 17.4027 20.3L11.9027 5.1C11.7027 4.6 12.0027 4 12.5027 3.8L14.4027 3.1C14.9027 2.9 15.5027 3.2 15.7027 3.7L21.2027 18.9Z" stroke="#879595" stroke-width="1.5" stroke-linecap="round" stroke-linejoin="round"/>
</svg>
