<svg width="130" height="34" viewBox="0 0 130 34" fill="none" xmlns="http://www.w3.org/2000/svg">
<path d="M13.0479 25.9372L14.0261 26.1745C14.0988 26.1551 14.1666 26.1503 14.2392 26.1503C14.3264 26.1309 14.4087 26.1164 14.4765 26.097C14.7428 26.0437 15.0043 26.0001 15.2706 25.9662C15.5515 25.913 15.8372 25.8936 16.1181 25.913C16.3844 25.913 16.6459 25.9469 16.9122 26.0195C17.1786 26.0922 17.44 26.1357 17.7064 26.1503C18.0066 26.2035 18.3068 26.2277 18.6071 26.2277H20.4617C20.6022 26.2471 20.7426 26.2616 20.883 26.281C21.0428 26.281 21.2026 26.2907 21.3576 26.3052C21.5852 26.3246 21.8176 26.3391 22.0452 26.3585C22.2922 26.3779 22.5391 26.3779 22.7861 26.3585C23.067 26.3391 23.3527 26.2859 23.6335 26.1987C23.9338 26.0922 24.2243 25.9856 24.5052 25.8791C24.878 25.7387 25.2461 25.5885 25.6189 25.4287C26.0063 25.2689 26.3792 25.1043 26.7327 24.9251C27.5462 24.4651 28.2242 23.8501 28.7714 23.0705C28.8779 22.93 28.9747 22.7896 29.0619 22.6492C29.1491 22.4894 29.2314 22.3296 29.2992 22.1746C29.3525 22.0487 29.3864 21.918 29.4057 21.7775C29.4396 21.6371 29.4784 21.5064 29.5123 21.3805C29.5462 21.2061 29.5849 21.0366 29.6188 20.8768C29.6721 20.7025 29.706 20.533 29.7253 20.3732C29.7447 20.2134 29.7495 20.0633 29.7495 19.9229C29.7495 19.7631 29.7399 19.613 29.7253 19.4725V19.0754C29.7253 18.9495 29.735 18.8285 29.7495 18.7026C29.7689 18.383 29.8028 18.0682 29.8561 17.7486C29.9093 17.429 29.9432 17.1046 29.9626 16.7704C29.9626 16.6639 29.9529 16.5477 29.9384 16.4266V16.0538C29.919 15.9279 29.9142 15.831 29.9142 15.7632C29.8948 15.6228 29.8803 15.4824 29.8609 15.3419V14.8674C29.8415 14.3541 29.8076 13.8456 29.7544 13.3323C29.7011 12.819 29.5413 12.388 29.2798 12.0345C29.12 11.7004 28.9263 11.3905 28.6987 11.1096C28.4857 10.8094 28.2678 10.5285 28.0353 10.2622C27.861 10.0879 27.6721 9.93775 27.4784 9.81185C27.2847 9.67142 27.091 9.54067 26.8973 9.41477C26.7036 9.28886 26.5196 9.14843 26.3405 8.99347C26.1807 8.83367 25.9966 8.70293 25.7836 8.59639C25.556 8.47049 25.309 8.39301 25.0427 8.35911C24.7957 8.32522 24.5488 8.27195 24.3018 8.19931C24.0209 8.14605 23.7449 8.08309 23.4834 8.0153C23.2171 7.94266 22.9459 7.89908 22.665 7.88455C22.4907 7.86518 22.3115 7.86518 22.1372 7.88455H21.3188C21.0525 7.90392 20.7813 7.90877 20.5005 7.90877H18.0938C17.9194 7.90877 17.7403 7.89908 17.5659 7.88455C17.3384 7.88455 17.0962 7.87487 16.8493 7.86034C16.6217 7.82645 16.3795 7.79739 16.1326 7.78286C15.905 7.76349 15.6629 7.75865 15.4159 7.75865C15.1689 7.75865 14.9317 7.76834 14.6992 7.78286H14.0116C13.8857 7.78286 13.7646 7.79255 13.6387 7.80708C13.5322 7.80708 13.4353 7.85066 13.3482 7.93782C13.261 8.04436 13.2077 8.16542 13.1884 8.31069V8.92084C13.169 9.2017 13.1448 9.4874 13.1109 9.76827C13.077 10.0491 13.0479 10.3348 13.0334 10.6157C12.9802 11.129 12.9075 11.6471 12.8203 12.175C12.7332 12.6883 12.6702 13.2064 12.6363 13.7391C12.617 14.1797 12.6267 14.6398 12.6605 15.1143C12.6944 15.5744 12.738 16.0392 12.7913 16.5186C12.8107 16.7462 12.8252 16.9884 12.8446 17.2353C12.8785 17.4823 12.9075 17.7196 12.922 17.952V18.4556C12.922 18.6154 12.9124 18.7752 12.8978 18.9302C12.8978 19.0028 12.8881 19.0706 12.8736 19.1432V19.303C12.8542 19.4289 12.8397 19.55 12.8203 19.6759V20.0197C12.8397 20.2473 12.8833 20.4798 12.9511 20.7074C13.0383 20.9349 13.1206 21.1674 13.1884 21.395C13.2755 21.7291 13.3191 22.0923 13.3191 22.4797C13.3191 22.8332 13.2949 23.1964 13.2416 23.5644C13.2077 23.9179 13.1642 24.2811 13.1109 24.6491C13.077 24.7895 13.0383 24.9396 13.0044 25.0995C12.985 25.2593 12.9705 25.4191 12.9511 25.574C12.9511 25.6273 12.9608 25.6902 12.9753 25.758C13.0092 25.8113 13.0383 25.8742 13.0528 25.942L13.0479 25.9372ZM19.6676 21.2255H19.6434C19.6434 21.2255 19.6191 21.2158 19.6191 21.2013L19.4061 21.0947C19.4061 21.0947 19.3819 21.0851 19.3819 21.0705C19.3625 21.0512 19.348 21.027 19.3286 20.9931C19.2753 20.6057 19.2221 20.2086 19.1688 19.8018C19.1349 19.395 19.1494 18.998 19.2221 18.6106C19.2414 18.4362 19.2656 18.2668 19.2995 18.107C19.3528 17.9326 19.3964 17.7535 19.4303 17.5791C19.4642 17.4193 19.5029 17.2595 19.5368 17.1046C19.5901 16.9302 19.6337 16.7511 19.6676 16.5767C19.7015 16.2571 19.7112 15.9424 19.6918 15.6228C19.6724 15.3032 19.6385 14.9787 19.5852 14.6446C19.5659 14.5042 19.5514 14.3541 19.532 14.1943C19.5126 14.0345 19.4981 13.8747 19.4787 13.7197C19.4593 13.6858 19.4448 13.6229 19.4254 13.5357C19.4061 13.4631 19.3915 13.4049 19.3722 13.3517C19.3722 13.279 19.4061 13.2112 19.4787 13.1386C19.532 13.0853 19.5949 13.066 19.6627 13.0853C19.7354 13.0853 19.8032 13.095 19.8758 13.1096C19.963 13.1289 20.0259 13.1338 20.0598 13.1338H20.7232C20.7765 13.1144 20.8298 13.1096 20.883 13.1096C21.0961 13.0902 21.2995 13.0853 21.4932 13.0853C21.6869 13.0853 21.8806 13.1386 22.0743 13.2451C22.2341 13.3178 22.3842 13.4195 22.5246 13.5647C22.6311 13.6906 22.7474 13.8456 22.8684 14.0393C22.9943 14.2669 23.0912 14.5139 23.159 14.7802C23.2316 15.0272 23.2994 15.2741 23.372 15.5211C23.5125 15.9618 23.6287 16.4363 23.7159 16.9496C23.803 17.4629 23.8321 17.9472 23.7933 18.4072C23.774 18.7946 23.7062 19.1771 23.5803 19.5452C23.4544 19.8987 23.2461 20.1989 22.9459 20.4459C22.6263 20.7267 22.268 20.9059 21.8612 20.9737C21.4738 21.027 21.0864 21.0705 20.6942 21.1044C20.5198 21.1238 20.3407 21.148 20.1663 21.1819C20.0065 21.2013 19.8419 21.2158 19.6627 21.2352L19.6676 21.2255ZM19.6918 20.9059C19.8516 20.872 20.0114 20.8429 20.1663 20.8284C20.3261 20.809 20.4908 20.7945 20.67 20.7751C21.0235 20.7412 21.3866 20.7025 21.7547 20.6686C22.1275 20.6153 22.452 20.4555 22.7328 20.1941C22.9992 19.9665 23.1832 19.6904 23.2897 19.3757C23.3963 19.0561 23.4592 18.7219 23.4737 18.3685C23.5076 17.9278 23.4834 17.4678 23.3963 16.9932C23.3236 16.4993 23.2219 16.0392 23.0767 15.6179C23.004 15.371 22.9362 15.1337 22.8636 14.9013C22.7909 14.6543 22.6941 14.417 22.573 14.1846C22.4859 14.0248 22.389 13.894 22.2825 13.7875C22.1566 13.6616 22.0355 13.5647 21.9096 13.497C21.7692 13.4243 21.6094 13.3904 21.4351 13.3904C21.2607 13.3904 21.0816 13.4001 20.9072 13.4146C20.7668 13.4146 20.6603 13.4243 20.5876 13.4388H20.0598C20.0259 13.4388 19.9436 13.4195 19.8225 13.3856C19.7354 13.3662 19.6918 13.3614 19.6918 13.3614C19.6918 13.3614 19.7015 13.3953 19.716 13.4679C19.7499 13.5551 19.7789 13.6277 19.7935 13.681C19.7935 13.8408 19.8032 14.0006 19.8177 14.1555C19.8516 14.296 19.8806 14.4461 19.8952 14.6059C19.9484 14.94 19.9823 15.2741 20.0017 15.6131C20.0211 15.9472 20.0017 16.2814 19.9484 16.6203C19.9291 16.7947 19.8952 16.9738 19.8419 17.1482C19.808 17.3225 19.7693 17.492 19.7354 17.6518C19.6821 17.8116 19.6385 17.9762 19.6046 18.1554C19.5707 18.3152 19.532 18.475 19.4981 18.6299C19.4642 19.0028 19.4642 19.3805 19.4981 19.7679C19.532 20.1408 19.5949 20.5185 19.6821 20.9059H19.6918ZM39.6136 18.5525L39.5361 18.6832C39.5361 18.7365 39.5264 18.7801 39.5119 18.814C39.5119 18.9011 39.4586 18.9399 39.3521 18.9205H39.2746C39.2746 18.9205 39.2407 18.8866 39.2214 18.8672C39.1148 18.814 39.1148 18.7171 39.2214 18.5767C39.2407 18.3491 39.2456 18.1166 39.2456 17.889C39.2649 17.6615 39.2988 17.429 39.3521 17.2014C39.4054 16.8818 39.4925 16.5767 39.6184 16.2765C39.7589 15.9569 39.8993 15.6518 40.0397 15.3516C40.1463 15.0853 40.2625 14.8141 40.3836 14.5332C40.4029 14.5139 40.4078 14.4703 40.4078 14.4025C40.4271 14.3492 40.432 14.3056 40.432 14.2717C40.4852 14.0974 40.5724 14.0441 40.6983 14.1119C40.6983 14.1119 40.708 14.1216 40.7225 14.1362C40.7225 14.1555 40.7322 14.1604 40.7467 14.1604C40.8 14.3541 40.8533 14.5478 40.9065 14.7415C40.9598 14.9158 41.0131 15.095 41.0663 15.2693C41.1196 15.463 41.1535 15.647 41.1729 15.8262C41.1922 16.0005 41.1922 16.1894 41.1729 16.383V16.8867C41.1729 16.9738 41.1922 17.0707 41.2261 17.1772C41.26 17.3031 41.3133 17.4242 41.3859 17.5501C41.4731 17.6566 41.5457 17.7728 41.599 17.8939C41.6523 18.0537 41.6959 18.2135 41.7298 18.3685C41.7636 18.5089 41.8024 18.6493 41.8363 18.7897C41.8363 18.8091 41.8266 18.8236 41.8121 18.843V18.8963C41.7394 18.9689 41.6716 18.9931 41.599 18.9738C41.5264 18.9544 41.4586 18.9399 41.3859 18.9205C41.2988 18.8866 41.2358 18.8672 41.2019 18.8672C40.9356 18.8333 40.6741 18.7897 40.4078 18.7365C40.1608 18.6638 39.8945 18.6057 39.6136 18.5525ZM40.6208 14.8189C40.5143 15.0465 40.4078 15.2693 40.3012 15.4824C40.1753 15.7826 40.0543 16.0828 39.9284 16.383C39.8025 16.6639 39.7153 16.9641 39.662 17.2837C39.6281 17.4435 39.5991 17.6033 39.5845 17.7583C39.5652 17.9181 39.5603 18.0779 39.5603 18.2329H39.6136C39.8799 18.2668 40.1414 18.32 40.4078 18.3927C40.6886 18.4653 40.9743 18.5186 41.2552 18.5525C41.3278 18.5718 41.3956 18.596 41.4683 18.6299C41.4344 18.4556 41.3811 18.2425 41.3085 17.9956C41.2552 17.8697 41.1826 17.7583 41.0954 17.6518C41.0228 17.5259 40.9695 17.3951 40.9356 17.2547C40.8823 17.1288 40.8581 17.0174 40.8581 16.9109V16.383C40.8775 16.2087 40.8775 16.0392 40.8581 15.8794C40.8387 15.7051 40.8145 15.5259 40.7806 15.3516C40.708 15.1579 40.6547 14.9787 40.6208 14.8238V14.8189ZM58.6493 26.4408H58.6735L59.4434 26.7846C59.7969 26.7653 60.1504 26.741 60.5039 26.7071C60.8719 26.6878 61.2254 26.6345 61.5644 26.5473C61.9324 26.4602 62.2859 26.3246 62.6249 26.1503C62.959 25.9759 63.2932 25.8258 63.6321 25.6999C63.8985 25.5934 64.16 25.5062 64.4263 25.4336C64.7072 25.3464 64.9638 25.2205 65.1962 25.0607C65.4238 24.9203 65.6272 24.7508 65.8064 24.5571C66.0001 24.3634 66.1938 24.1794 66.3875 24.0002C66.6006 23.8259 66.8088 23.6467 67.0219 23.4724C67.2494 23.2981 67.4431 23.085 67.6029 22.838C67.6756 22.6976 67.7288 22.5572 67.7627 22.4167C67.7966 22.2763 67.8257 22.1359 67.8402 21.9954C67.8935 21.6613 67.9177 21.3272 67.9177 20.9882C67.9371 20.6347 67.9419 20.2909 67.9419 19.9568V19.797C67.9613 19.7243 67.9661 19.6662 67.9661 19.613V18.9253C67.9661 18.6977 67.9468 18.4653 67.9129 18.2377C67.8063 17.8164 67.6029 17.3903 67.3027 16.969C67.0219 16.5477 66.6926 16.2087 66.3245 15.9618C66.0243 15.7487 65.6902 15.5889 65.3173 15.4872C64.9444 15.3807 64.5861 15.2741 64.2326 15.1676C63.9663 15.0804 63.6951 14.9981 63.4142 14.9303C63.1479 14.8432 62.8767 14.7899 62.5959 14.7705C62.3828 14.7366 62.1746 14.7172 61.9615 14.7172H61.3513C61.177 14.7366 60.9882 14.7415 60.7945 14.7415C60.6201 14.7415 60.4313 14.7318 60.2376 14.7172C59.9712 14.6833 59.7098 14.6398 59.4434 14.5865C59.1965 14.5139 58.9592 14.417 58.7267 14.296C58.533 14.2088 58.3539 14.1023 58.1989 13.9764C58.0391 13.8359 57.9519 13.6519 57.9326 13.4195C57.9132 13.1919 57.9762 13.0224 58.1166 12.9159C58.2764 12.79 58.4507 12.7028 58.6444 12.6495C59.0851 12.5236 59.5161 12.543 59.9422 12.7028V12.727C60.1698 12.8335 60.3586 12.9643 60.4991 13.1241C60.6589 13.2645 60.8526 13.3953 61.0802 13.5212C61.3465 13.6955 61.6371 13.8117 61.9518 13.865C62.2859 13.8989 62.6055 13.9376 62.9058 13.9715C63.0123 13.9909 63.1188 14.0054 63.2254 14.0248C63.3319 14.0248 63.4384 14.0345 63.545 14.049C63.7387 14.0684 63.9227 14.1023 64.1019 14.1555C64.2956 14.1894 64.4893 14.2185 64.6829 14.233C64.9299 14.2524 65.1575 14.233 65.3706 14.1797C65.5982 14.1265 65.8306 14.0635 66.0582 13.9957C66.1308 13.9764 66.1986 13.9618 66.2713 13.9425C66.3584 13.9086 66.4408 13.8698 66.5085 13.8359C66.7749 13.7633 66.9783 13.71 67.1187 13.6761C67.2591 13.6229 67.385 13.4388 67.4867 13.1192C67.5206 13.0466 67.5303 12.9788 67.5109 12.9062C67.4916 12.819 67.477 12.7367 67.4577 12.6689C67.4383 12.5963 67.4335 12.5381 67.4335 12.4849C67.3802 12.1653 67.293 11.8602 67.1671 11.56C67.0606 11.2597 66.9298 10.9692 66.77 10.6883C66.6296 10.422 66.4698 10.1653 66.2955 9.91838C66.1357 9.67142 65.9517 9.44866 65.7386 9.25497C65.5643 9.08064 65.3657 8.93537 65.1575 8.83367C64.9444 8.72714 64.7362 8.63029 64.5231 8.54313C64.2035 8.41722 63.8888 8.32037 63.5692 8.25258C63.2496 8.16542 62.9348 8.10246 62.6152 8.06857C62.3489 8.0492 62.0874 8.04436 61.8211 8.04436C61.5547 8.04436 61.2932 8.02499 61.0269 7.99109C60.8865 7.97172 60.746 7.95719 60.6056 7.93782C60.4846 7.91845 60.349 7.89424 60.2085 7.86034C59.7485 7.78771 59.2836 7.7296 58.8042 7.67633C58.3442 7.60369 57.8842 7.57948 57.429 7.59885C56.9544 7.59885 56.4314 7.70538 55.8649 7.91845C55.2983 8.13152 54.814 8.35911 54.4073 8.60608C54.1264 8.73198 53.8407 8.86273 53.5598 9.00316C53.279 9.12906 53.032 9.30339 52.819 9.53099C52.6253 9.74405 52.4655 9.98133 52.3444 10.2477C52.2379 10.514 52.1313 10.7755 52.0248 11.0418C51.9183 11.3082 51.8117 11.5697 51.7052 11.836C51.5987 12.083 51.5018 12.3493 51.4146 12.6302C51.3614 12.8771 51.3275 13.1241 51.3081 13.371C51.2887 13.618 51.2887 13.8747 51.3081 14.141C51.342 14.4945 51.4243 14.8383 51.5454 15.1724C51.6713 15.492 51.8117 15.7971 51.9667 16.0973C52.0732 16.291 52.1701 16.4751 52.2572 16.6542C52.3638 16.8286 52.4606 17.0077 52.5478 17.1821C52.6543 17.3564 52.7705 17.5259 52.8916 17.6857C53.0175 17.8455 53.1579 17.9859 53.3129 18.107C53.4533 18.2135 53.6034 18.3007 53.7632 18.3733C53.923 18.4459 54.0731 18.5234 54.2136 18.6106C54.4412 18.7171 54.6639 18.8382 54.877 18.9834C55.1046 19.1093 55.3467 19.1965 55.5937 19.2498C55.768 19.2837 55.9375 19.303 56.0973 19.303H56.6251C56.7317 19.2837 56.8382 19.2788 56.9447 19.2788C57.0706 19.2788 57.182 19.2885 57.2885 19.303C57.6081 19.3224 57.9229 19.3563 58.2425 19.4096C58.5621 19.4435 58.8769 19.4822 59.1965 19.5161C59.4967 19.55 59.7969 19.5887 60.0972 19.6226C60.4168 19.642 60.7218 19.7001 61.0221 19.8067C61.2158 19.8599 61.4191 19.9471 61.6322 20.073C61.8453 20.1795 61.9421 20.3539 61.9228 20.6008C61.9228 20.8478 61.8065 21.0221 61.5789 21.1286C61.3659 21.2352 61.1625 21.3127 60.9688 21.3659C60.6492 21.4725 60.3247 21.5499 59.9906 21.6032C59.671 21.6565 59.3466 21.6758 59.0124 21.6565C58.7461 21.6371 58.5088 21.6032 58.2958 21.5499C58.0827 21.4773 57.8551 21.3998 57.6081 21.3127C57.5016 21.2594 57.4048 21.2061 57.3176 21.1529C57.2304 21.0996 57.1336 21.0657 57.027 21.0463C56.8333 20.9737 56.63 20.9301 56.4169 20.9156C56.2038 20.8962 56.0004 20.872 55.8067 20.8381C55.6324 20.8187 55.4629 20.7945 55.3031 20.7606C55.1433 20.7074 54.9787 20.6735 54.7995 20.6541C54.6397 20.6202 54.4799 20.6008 54.325 20.6008C54.1652 20.5814 54.0054 20.5766 53.8504 20.5766C53.6761 20.5572 53.4969 20.533 53.3226 20.4991C53.1628 20.4652 52.9981 20.4362 52.819 20.4216C52.6592 20.4023 52.4994 20.3878 52.3444 20.3684C52.1846 20.3345 52.02 20.2957 51.8408 20.2618C51.8214 20.2618 51.7778 20.2425 51.71 20.2086C51.5841 20.1553 51.497 20.1359 51.4437 20.1553C51.2306 20.228 51.066 20.3684 50.9401 20.5766C50.9207 20.6299 50.9207 20.717 50.9401 20.8429C50.9595 20.9156 50.9643 20.9592 50.9643 20.9737C50.9982 21.3466 51.0805 21.6952 51.2016 22.0342C51.342 22.3538 51.5115 22.6685 51.7052 22.9881C51.865 23.2545 52.0248 23.5257 52.1798 23.8065C52.3541 24.0729 52.5526 24.3101 52.7608 24.5232C52.9545 24.7363 53.1773 24.9106 53.4243 25.051C53.6712 25.1915 53.9182 25.3319 54.1652 25.4723C54.3927 25.5982 54.6252 25.7193 54.8528 25.8452C55.0997 25.9517 55.3467 26.0292 55.5937 26.0825C55.7535 26.1164 55.9036 26.1454 56.044 26.1599H56.4944C56.5815 26.1599 56.6687 26.1696 56.7607 26.1842H57.027C57.2934 26.2035 57.5549 26.2374 57.8212 26.2907C58.1021 26.344 58.3781 26.3972 58.6396 26.4505L58.6493 26.4408ZM70.5133 26.4408C70.5133 26.4408 70.5036 26.4069 70.489 26.3875C70.4551 26.3536 70.4358 26.3343 70.4358 26.3343C70.4164 26.2277 70.3825 26.1309 70.3292 26.0437C70.2953 25.9372 70.276 25.8307 70.276 25.7241C70.2566 25.6709 70.2518 25.6079 70.2518 25.5401C70.2711 25.4675 70.2857 25.3997 70.305 25.327V25.143C70.3583 24.6152 70.4116 24.0777 70.4648 23.5305C70.5181 23.0705 70.5423 22.6056 70.5423 22.1262C70.5617 21.6323 70.5423 21.1577 70.489 20.6977C70.4551 20.3103 70.3728 19.9277 70.2518 19.5597C70.1452 19.2934 70.0242 19.0367 69.8837 18.7897C69.7578 18.5234 69.6804 18.2522 69.6465 17.9714C69.6126 17.8648 69.5932 17.7486 69.5932 17.6276C69.5932 17.5065 69.6029 17.3903 69.6174 17.2837V15.986C69.6174 15.7729 69.6271 15.5695 69.6416 15.3758C69.661 15.216 69.6852 15.0562 69.7191 14.9013C69.753 14.7269 69.782 14.5574 69.7966 14.3976C69.8305 14.0635 69.8498 13.7294 69.8498 13.3904C69.8498 13.0514 69.8595 12.7222 69.8741 12.3832C69.8934 12.2573 69.908 12.1362 69.9273 12.0103C69.9467 11.8699 69.9709 11.7391 70.0048 11.6132C70.0387 11.3324 70.0774 11.0564 70.1113 10.7949C70.1452 10.5285 70.1452 10.267 70.1113 10.0007C70.092 9.92807 70.0774 9.86027 70.0581 9.78764C70.0387 9.70047 70.0145 9.61331 69.9806 9.5213C69.9273 9.29371 69.8837 9.06127 69.8498 8.83367C69.8305 8.60608 69.9031 8.39301 70.0629 8.19931C70.2033 8.02499 70.3728 7.92814 70.5665 7.90877C70.7796 7.87487 70.983 7.83129 71.1767 7.77802C71.4769 7.72475 71.7674 7.65212 72.0483 7.56495C72.3485 7.45842 72.6488 7.39062 72.949 7.35189C73.2831 7.31799 73.6173 7.32767 73.9562 7.3761C74.2904 7.42936 74.6197 7.48263 74.9344 7.5359C75.0603 7.55527 75.1572 7.5698 75.225 7.58917C75.3121 7.60854 75.409 7.62306 75.5155 7.64243C75.622 7.6618 75.7189 7.67633 75.806 7.6957C76.0191 7.7296 76.237 7.75865 76.4695 7.77318C76.6971 7.77318 76.9004 7.84581 77.0796 7.98625C77.22 8.12668 77.3024 8.28648 77.3169 8.46081C77.3508 8.62061 77.3702 8.78525 77.3702 8.96442V9.07095C77.3508 9.58425 77.2927 10.0927 77.1861 10.606C77.099 11.1193 77.0554 11.6278 77.0554 12.1411C77.0554 12.4074 77.0651 12.6786 77.0796 12.9594C77.1135 13.2258 77.1571 13.4873 77.2104 13.7536C77.2297 13.9134 77.2539 14.0732 77.2878 14.2282C77.3217 14.388 77.3411 14.5526 77.3411 14.7318C77.3411 14.9255 77.3217 15.1289 77.2878 15.3419C77.2685 15.5356 77.2443 15.739 77.2104 15.9521C77.191 16.0925 77.1668 16.2426 77.1329 16.4024C77.1135 16.5428 77.099 16.6833 77.0796 16.8237C77.0602 17.1046 77.0554 17.3903 77.0554 17.6711C77.0748 17.952 77.0893 18.2425 77.1087 18.5428V18.7558C77.128 18.8285 77.1329 18.8963 77.1329 18.9689C77.1668 19.4967 77.1861 20.0294 77.1861 20.5572C77.2055 21.0705 77.2491 21.5887 77.3169 22.1213C77.3895 22.6346 77.4767 23.1431 77.5832 23.6564C77.6898 24.1697 77.7527 24.6878 77.7672 25.2157C77.7672 25.4287 77.7479 25.6321 77.714 25.8258C77.6946 26.0195 77.5978 26.189 77.4234 26.3294C77.3169 26.4021 77.2104 26.4457 77.1038 26.4602C76.9973 26.4795 76.8811 26.4941 76.76 26.5134C76.6535 26.5328 76.5373 26.5377 76.4162 26.5377C76.3097 26.557 76.2031 26.5619 76.0966 26.5619H75.7237C75.5107 26.5812 75.3024 26.5812 75.0894 26.5619C74.8763 26.5619 74.6681 26.5522 74.455 26.5377H74.271C74.2177 26.5377 74.1548 26.528 74.087 26.5134H73.5301C73.3558 26.5134 73.1766 26.5038 73.0023 26.4892H72.7892C72.7359 26.4892 72.6827 26.4795 72.6294 26.465C72.5035 26.465 72.3824 26.4553 72.2614 26.4408H71.8885C71.6948 26.4408 71.5011 26.4505 71.3074 26.465C71.1331 26.4989 70.9442 26.528 70.7505 26.5425C70.7312 26.5425 70.707 26.5328 70.6731 26.5183C70.6198 26.5183 70.5665 26.4941 70.5133 26.4408ZM79.9415 26.2277C79.9415 26.2277 79.8979 26.2035 79.864 26.1503C79.8108 26.1164 79.7865 26.0873 79.7865 26.0728C79.7672 25.9856 79.743 25.9033 79.7091 25.8355C79.6752 25.7483 79.6558 25.6612 79.6558 25.5692V25.5159C79.6752 25.3561 79.6897 25.206 79.7091 25.0656C79.743 24.9058 79.7817 24.746 79.8156 24.591C79.8689 24.2375 79.9124 23.884 79.9463 23.5305C79.9996 23.177 80.0238 22.8235 80.0238 22.47C80.0238 22.1165 79.9802 21.7824 79.8931 21.4628C79.8204 21.2158 79.743 20.9785 79.6558 20.7461C79.5832 20.5185 79.5396 20.2715 79.525 20.0052V19.6323C79.5444 19.5064 79.5589 19.3854 79.5783 19.2595V19.0997C79.5977 19.027 79.6025 18.9592 79.6025 18.8866C79.6219 18.7268 79.6267 18.5767 79.6267 18.4362V17.9617C79.6074 17.7147 79.5832 17.4774 79.5493 17.245C79.5299 16.998 79.5154 16.7511 79.496 16.5041C79.4427 16.0295 79.3991 15.5598 79.3652 15.0998C79.3314 14.6252 79.3217 14.1555 79.341 13.6955C79.3749 13.1677 79.4379 12.6447 79.525 12.1314C79.6122 11.6036 79.6849 11.0806 79.7381 10.5721C79.7575 10.2913 79.7817 10.0152 79.8156 9.75374C79.8495 9.47288 79.8785 9.18717 79.8931 8.90631V8.63998C79.8931 8.48018 79.9028 8.32037 79.9173 8.16542C79.9367 8.00562 80.0044 7.8555 80.1304 7.71507C80.2563 7.58917 80.3967 7.52137 80.5516 7.502C80.7114 7.4681 80.8712 7.44873 81.0262 7.44873H81.6896C81.9366 7.42936 82.1835 7.42452 82.4305 7.42452C82.6775 7.42452 82.9244 7.43421 83.1714 7.44873C83.4184 7.4681 83.6557 7.49232 83.8881 7.52621C84.1157 7.54558 84.3578 7.55043 84.6048 7.55043C84.7791 7.5698 84.9583 7.57464 85.1326 7.57464H87.5151C87.7814 7.57464 88.0526 7.56495 88.3335 7.55043H89.1809C89.3552 7.53106 89.5344 7.53106 89.7087 7.55043C89.9896 7.5698 90.2656 7.61338 90.5271 7.68117C90.8079 7.75381 91.0937 7.8216 91.3745 7.89424C91.6408 7.94751 91.9023 8.00077 92.1687 8.05404C92.4495 8.08794 92.7159 8.17994 92.9628 8.32037C93.1759 8.42691 93.3599 8.55765 93.5197 8.71746C93.694 8.87726 93.8829 9.01769 94.0766 9.13875C94.2897 9.27918 94.4979 9.41961 94.711 9.56004C94.924 9.68594 95.1177 9.8409 95.2921 10.0346C95.539 10.3155 95.7666 10.606 95.9797 10.9062C96.2073 11.2065 96.401 11.5261 96.5608 11.8602C96.8416 12.2331 97.0111 12.6883 97.0644 13.2355C97.137 13.7633 97.1806 14.2863 97.1951 14.7996V15.2741C97.2145 15.4339 97.229 15.584 97.2484 15.7245V16.0441C97.2678 16.17 97.2726 16.291 97.2726 16.4169C97.292 16.5428 97.2968 16.6639 97.2968 16.7898C97.2775 17.1094 97.2436 17.4242 97.1903 17.7438C97.137 18.0634 97.0934 18.3878 97.0595 18.7219V19.4919C97.0789 19.6323 97.0838 19.7824 97.0838 19.9422C97.0838 20.0827 97.0741 20.2328 97.0595 20.3926C97.0402 20.5669 97.0063 20.7461 96.953 20.9204C96.9191 21.0947 96.8755 21.2739 96.8223 21.4482C96.8029 21.5887 96.7787 21.7291 96.7448 21.8695C96.7109 22.01 96.6673 22.1504 96.614 22.2908C96.5414 22.4506 96.4542 22.6104 96.3477 22.7654C96.2605 22.9252 96.1637 23.085 96.0572 23.24C95.4906 24.0535 94.7787 24.6975 93.9119 25.1721C93.5439 25.3658 93.1614 25.545 92.774 25.6999C92.4011 25.8597 92.0234 26.0098 91.636 26.1503C91.3358 26.2568 91.0355 26.3536 90.7353 26.4408C90.4351 26.5473 90.1252 26.6151 89.8104 26.6539C89.5828 26.6732 89.3407 26.6732 89.0937 26.6539C88.8661 26.6345 88.624 26.62 88.377 26.6006C88.2172 26.5812 88.0574 26.5667 87.9025 26.5473C87.762 26.5473 87.6216 26.5377 87.4812 26.5231H85.6023C85.3021 26.5231 84.9922 26.4989 84.6774 26.4457C84.4304 26.4263 84.1738 26.3827 83.9075 26.3149C83.6605 26.2423 83.4038 26.2084 83.1375 26.2084C82.8712 26.189 82.6097 26.2084 82.3433 26.2616C82.077 26.2955 81.8155 26.3343 81.5492 26.3682C81.4765 26.3875 81.3991 26.4021 81.3119 26.4214C81.2393 26.4408 81.1715 26.4553 81.0988 26.4747H80.9923L79.9318 26.2084L79.9415 26.2277ZM86.6919 21.2255H86.6677C86.6677 21.2255 86.6434 21.2158 86.6434 21.2013L86.4304 21.0947C86.4304 21.0947 86.4062 21.0851 86.4062 21.0705C86.3868 21.0512 86.3723 21.027 86.3529 20.9931C86.2996 20.6057 86.2464 20.2086 86.1931 19.8018C86.1592 19.395 86.1737 18.998 86.2464 18.6106C86.2657 18.4362 86.2899 18.2668 86.3238 18.107C86.3771 17.9326 86.4207 17.7535 86.4546 17.5791C86.4885 17.4193 86.5272 17.2595 86.5611 17.1046C86.6144 16.9302 86.658 16.7511 86.6919 16.5767C86.7258 16.2571 86.7354 15.9424 86.7161 15.6228C86.6967 15.3032 86.6628 14.9787 86.6096 14.6446C86.5902 14.5042 86.5757 14.3541 86.5563 14.1943C86.5369 14.0345 86.5224 13.8747 86.503 13.7197C86.4836 13.6858 86.4691 13.6229 86.4497 13.5357C86.4304 13.4631 86.4158 13.4049 86.3965 13.3517C86.3965 13.279 86.4304 13.2112 86.503 13.1386C86.5563 13.0853 86.6192 13.066 86.687 13.0853C86.7597 13.0853 86.8275 13.095 86.9001 13.1096C86.9873 13.1289 87.0502 13.1338 87.0841 13.1338H87.7475C87.8008 13.1144 87.8541 13.1096 87.9073 13.1096C88.1204 13.0902 88.3238 13.0853 88.5175 13.0853C88.7112 13.0853 88.9049 13.1386 89.0986 13.2451C89.2584 13.3178 89.4085 13.4195 89.5489 13.5647C89.6554 13.6906 89.7717 13.8456 89.8927 14.0393C90.0138 14.2669 90.1155 14.5139 90.1833 14.7802C90.2559 15.0272 90.3237 15.2741 90.3963 15.5211C90.5368 15.9618 90.653 16.4363 90.7402 16.9496C90.8273 17.4629 90.8564 17.9472 90.8176 18.4072C90.7983 18.7946 90.7305 19.1771 90.6046 19.5452C90.4787 19.8987 90.2704 20.1989 89.9702 20.4459C89.6506 20.7267 89.2923 20.9059 88.8855 20.9737C88.4981 21.027 88.1107 21.0705 87.7233 21.1044C87.549 21.1238 87.3698 21.148 87.1955 21.1819C87.0357 21.2013 86.871 21.2158 86.6919 21.2352V21.2255ZM86.7161 20.9059C86.8759 20.872 87.0357 20.8429 87.1906 20.8284C87.3504 20.809 87.5151 20.7945 87.6943 20.7751C88.0478 20.7412 88.4109 20.7025 88.779 20.6686C89.147 20.6153 89.4763 20.4555 89.7571 20.1941C90.0235 19.9665 90.2075 19.6904 90.314 19.3757C90.4205 19.0561 90.4835 18.7219 90.498 18.3685C90.5319 17.9278 90.5077 17.4678 90.4206 16.9932C90.3479 16.4993 90.2462 16.0392 90.1009 15.6179C90.0283 15.371 89.9605 15.1337 89.8879 14.9013C89.8152 14.6543 89.7184 14.417 89.5973 14.1846C89.5102 14.0248 89.4133 13.894 89.3068 13.7875C89.1809 13.6616 89.0598 13.5647 88.9339 13.497C88.7935 13.4243 88.6337 13.3904 88.4594 13.3904C88.285 13.3904 88.1059 13.4001 87.9315 13.4146C87.7911 13.4146 87.6846 13.4243 87.6119 13.4388H87.0841C87.0502 13.4388 86.9679 13.4195 86.8468 13.3856C86.7597 13.3662 86.7161 13.3614 86.7161 13.3614C86.7161 13.3614 86.7258 13.3953 86.7403 13.4679C86.7742 13.5551 86.8032 13.6277 86.8178 13.681C86.8178 13.8408 86.8275 14.0006 86.842 14.1555C86.8759 14.296 86.9049 14.4461 86.9195 14.6059C86.9727 14.94 87.0066 15.2741 87.026 15.6131C87.0454 15.9472 87.026 16.2814 86.9727 16.6203C86.9534 16.7947 86.9195 16.9738 86.8662 17.1482C86.8323 17.3225 86.7936 17.492 86.7597 17.6518C86.7064 17.8116 86.6628 17.9762 86.6289 18.1554C86.595 18.3152 86.5563 18.475 86.5224 18.6299C86.4885 19.0028 86.4885 19.3805 86.5224 19.7679C86.5563 20.1408 86.6192 20.5185 86.7064 20.9059H86.7161ZM106.638 18.5525L106.56 18.6832C106.56 18.7365 106.551 18.7801 106.536 18.814C106.536 18.9011 106.483 18.9399 106.376 18.9205H106.299C106.299 18.9205 106.265 18.8866 106.246 18.8672C106.139 18.814 106.139 18.7171 106.246 18.5767C106.265 18.3491 106.27 18.1166 106.27 17.889C106.289 17.6615 106.323 17.429 106.376 17.2014C106.43 16.8818 106.517 16.5767 106.643 16.2765C106.783 15.9569 106.924 15.6518 107.064 15.3516C107.171 15.0853 107.287 14.8141 107.408 14.5332C107.427 14.5139 107.432 14.4703 107.432 14.4025C107.451 14.3492 107.456 14.3056 107.456 14.2717C107.51 14.0974 107.597 14.0441 107.723 14.1119C107.723 14.1119 107.732 14.1216 107.747 14.1362C107.747 14.1555 107.757 14.1604 107.771 14.1604C107.824 14.3541 107.878 14.5478 107.931 14.7415C107.984 14.9158 108.037 15.095 108.091 15.2693C108.144 15.463 108.178 15.647 108.197 15.8262C108.217 16.0005 108.217 16.1894 108.197 16.383V16.8867C108.197 16.9738 108.217 17.0707 108.25 17.1772C108.284 17.3031 108.338 17.4242 108.41 17.5501C108.497 17.6566 108.57 17.7728 108.623 17.8939C108.677 18.0537 108.72 18.2135 108.754 18.3685C108.788 18.5089 108.827 18.6493 108.861 18.7897C108.861 18.8091 108.851 18.8236 108.836 18.843V18.8963C108.764 18.9689 108.696 18.9931 108.623 18.9738C108.551 18.9544 108.483 18.9399 108.41 18.9205C108.323 18.8866 108.26 18.8672 108.226 18.8672C107.96 18.8333 107.698 18.7897 107.432 18.7365C107.185 18.6638 106.919 18.6057 106.638 18.5525ZM107.645 14.8189C107.539 15.0465 107.432 15.2693 107.326 15.4824C107.2 15.7826 107.079 16.0828 106.953 16.383C106.827 16.6639 106.74 16.9641 106.686 17.2837C106.652 17.4435 106.623 17.6033 106.609 17.7583C106.589 17.9181 106.585 18.0779 106.585 18.2329H106.638C106.904 18.2668 107.166 18.32 107.432 18.3927C107.713 18.4653 107.999 18.5186 108.279 18.5525C108.352 18.5718 108.42 18.596 108.493 18.6299C108.459 18.4556 108.405 18.2425 108.333 17.9956C108.279 17.8697 108.207 17.7583 108.12 17.6518C108.047 17.5259 107.994 17.3951 107.96 17.2547C107.907 17.1288 107.882 17.0174 107.882 16.9109V16.383C107.902 16.2087 107.902 16.0392 107.882 15.8794C107.863 15.7051 107.839 15.5259 107.805 15.3516C107.732 15.1579 107.679 14.9787 107.645 14.8238V14.8189ZM117.437 25.3561V25.3803H117.466C117.466 25.3803 117.456 25.3706 117.437 25.3561ZM50.4123 25.3561V25.3803H50.4413C50.4413 25.3803 50.4316 25.3706 50.4123 25.3561ZM19.6627 21.2255H19.6385C19.6385 21.2255 19.6143 21.2158 19.6143 21.2013L19.4012 21.0947C19.4012 21.0947 19.377 21.0851 19.377 21.0705C19.3577 21.0512 19.3431 21.027 19.3238 20.9931C19.2705 20.6057 19.2172 20.2086 19.164 19.8018C19.1301 19.395 19.1446 18.998 19.2172 18.6106C19.2366 18.4362 19.2608 18.2668 19.2947 18.107C19.348 17.9326 19.3915 17.7535 19.4254 17.5791C19.4593 17.4193 19.4981 17.2595 19.532 17.1046C19.5852 16.9302 19.6288 16.7511 19.6627 16.5767C19.6966 16.2571 19.7063 15.9424 19.6869 15.6228C19.6676 15.3032 19.6337 14.9787 19.5804 14.6446C19.561 14.5042 19.5465 14.3541 19.5271 14.1943C19.5078 14.0345 19.4932 13.8747 19.4739 13.7197C19.4545 13.6858 19.44 13.6229 19.4206 13.5357C19.4012 13.4631 19.3867 13.4049 19.3673 13.3517C19.3673 13.279 19.4012 13.2112 19.4739 13.1386C19.5271 13.0853 19.5901 13.066 19.6579 13.0853C19.7305 13.0853 19.7983 13.095 19.871 13.1096C19.9581 13.1289 20.0211 13.1338 20.055 13.1338H20.7184C20.7716 13.1144 20.8249 13.1096 20.8782 13.1096C21.0912 13.0902 21.2946 13.0853 21.4883 13.0853C21.682 13.0853 21.8757 13.1386 22.0694 13.2451C22.2292 13.3178 22.3793 13.4195 22.5198 13.5647C22.6263 13.6906 22.7425 13.8456 22.8636 14.0393C22.9895 14.2669 23.0863 14.5139 23.1541 14.7802C23.2268 15.0272 23.2946 15.2741 23.3672 15.5211C23.5076 15.9618 23.6238 16.4363 23.711 16.9496C23.7982 17.4629 23.8272 17.9472 23.7885 18.4072C23.7691 18.7946 23.7013 19.1771 23.5754 19.5452C23.4495 19.8987 23.2413 20.1989 22.9411 20.4459C22.6215 20.7267 22.2631 20.9059 21.8564 20.9737C21.469 21.027 21.0816 21.0705 20.6893 21.1044C20.515 21.1238 20.3358 21.148 20.1615 21.1819C20.0017 21.2013 19.8371 21.2158 19.6579 21.2352L19.6627 21.2255ZM39.6136 18.5525L39.5361 18.6832C39.5361 18.7365 39.5264 18.7801 39.5119 18.814C39.5119 18.9011 39.4586 18.9399 39.3521 18.9205H39.2746C39.2746 18.9205 39.2407 18.8866 39.2214 18.8672C39.1148 18.814 39.1148 18.7171 39.2214 18.5767C39.2407 18.3491 39.2456 18.1166 39.2456 17.889C39.2649 17.6615 39.2988 17.429 39.3521 17.2014C39.4054 16.8818 39.4925 16.5767 39.6184 16.2765C39.7589 15.9569 39.8993 15.6518 40.0397 15.3516C40.1463 15.0853 40.2625 14.8141 40.3836 14.5332C40.4029 14.5139 40.4078 14.4703 40.4078 14.4025C40.4271 14.3492 40.432 14.3056 40.432 14.2717C40.4852 14.0974 40.5724 14.0441 40.6983 14.1119C40.6983 14.1119 40.708 14.1216 40.7225 14.1362C40.7225 14.1555 40.7322 14.1604 40.7467 14.1604C40.8 14.3541 40.8533 14.5478 40.9065 14.7415C40.9598 14.9158 41.0131 15.095 41.0663 15.2693C41.1196 15.463 41.1535 15.647 41.1729 15.8262C41.1922 16.0005 41.1922 16.1894 41.1729 16.383V16.8867C41.1729 16.9738 41.1922 17.0707 41.2261 17.1772C41.26 17.3031 41.3133 17.4242 41.3859 17.5501C41.4731 17.6566 41.5457 17.7728 41.599 17.8939C41.6523 18.0537 41.6959 18.2135 41.7298 18.3685C41.7636 18.5089 41.8024 18.6493 41.8363 18.7897C41.8363 18.8091 41.8266 18.8236 41.8121 18.843V18.8963C41.7394 18.9689 41.6716 18.9931 41.599 18.9738C41.5264 18.9544 41.4586 18.9399 41.3859 18.9205C41.2988 18.8866 41.2358 18.8672 41.2019 18.8672C40.9356 18.8333 40.6741 18.7897 40.4078 18.7365C40.1608 18.6638 39.8945 18.6057 39.6136 18.5525ZM86.7161 20.9059C86.8759 20.872 87.0357 20.8429 87.1906 20.8284C87.3504 20.809 87.5151 20.7945 87.6943 20.7751C88.0478 20.7412 88.4109 20.7025 88.779 20.6686C89.147 20.6153 89.4763 20.4555 89.7571 20.1941C90.0235 19.9665 90.2075 19.6904 90.314 19.3757C90.4205 19.0561 90.4835 18.7219 90.498 18.3685C90.5319 17.9278 90.5077 17.4678 90.4206 16.9932C90.3479 16.4993 90.2462 16.0392 90.1009 15.6179C90.0283 15.371 89.9605 15.1337 89.8879 14.9013C89.8152 14.6543 89.7184 14.417 89.5973 14.1846C89.5102 14.0248 89.4133 13.894 89.3068 13.7875C89.1809 13.6616 89.0598 13.5647 88.9339 13.497C88.7935 13.4243 88.6337 13.3904 88.4594 13.3904C88.285 13.3904 88.1059 13.4001 87.9315 13.4146C87.7911 13.4146 87.6846 13.4243 87.6119 13.4388H87.0841C87.0502 13.4388 86.9679 13.4195 86.8468 13.3856C86.7597 13.3662 86.7161 13.3614 86.7161 13.3614C86.7161 13.3614 86.7258 13.3953 86.7403 13.4679C86.7742 13.5551 86.8032 13.6277 86.8178 13.681C86.8178 13.8408 86.8275 14.0006 86.842 14.1555C86.8759 14.296 86.9049 14.4461 86.9195 14.6059C86.9727 14.94 87.0066 15.2741 87.026 15.6131C87.0454 15.9472 87.026 16.2814 86.9727 16.6203C86.9534 16.7947 86.9195 16.9738 86.8662 17.1482C86.8323 17.3225 86.7936 17.492 86.7597 17.6518C86.7064 17.8116 86.6628 17.9762 86.6289 18.1554C86.595 18.3152 86.5563 18.475 86.5224 18.6299C86.4885 19.0028 86.4885 19.3805 86.5224 19.7679C86.5563 20.1408 86.6192 20.5185 86.7064 20.9059H86.7161ZM107.645 14.8189C107.539 15.0465 107.432 15.2693 107.326 15.4824C107.2 15.7826 107.079 16.0828 106.953 16.383C106.827 16.6639 106.74 16.9641 106.686 17.2837C106.652 17.4435 106.623 17.6033 106.609 17.7583C106.589 17.9181 106.585 18.0779 106.585 18.2329H106.638C106.904 18.2668 107.166 18.32 107.432 18.3927C107.713 18.4653 107.999 18.5186 108.279 18.5525C108.352 18.5718 108.42 18.596 108.493 18.6299C108.459 18.4556 108.405 18.2425 108.333 17.9956C108.279 17.8697 108.207 17.7583 108.12 17.6518C108.047 17.5259 107.994 17.3951 107.96 17.2547C107.907 17.1288 107.882 17.0174 107.882 16.9109V16.383C107.902 16.2087 107.902 16.0392 107.882 15.8794C107.863 15.7051 107.839 15.5259 107.805 15.3516C107.732 15.1579 107.679 14.9787 107.645 14.8238V14.8189Z" fill="#293B27"/>
<path d="M30.2533 16.4362C30.2679 16.5572 30.2776 16.6831 30.2776 16.8042C30.263 17.1238 30.2243 17.4385 30.171 17.7581C30.1226 18.0778 30.0742 18.4022 30.0403 18.7363V19.5063C30.0596 19.6467 30.0693 19.7968 30.0693 19.9566C30.0693 20.0971 30.0596 20.2472 30.0403 20.407C30.0209 20.5813 29.987 20.7556 29.9337 20.9348C29.8998 21.1091 29.8563 21.2883 29.803 21.4626C29.7836 21.6031 29.7594 21.7483 29.7255 21.8888C29.6868 22.0292 29.6432 22.1696 29.5899 22.31C29.5221 22.4699 29.4301 22.6297 29.3284 22.7895C29.2364 22.9444 29.1396 23.1042 29.033 23.264C28.4713 24.0775 27.7546 24.7216 26.8927 25.1961C26.5198 25.3898 26.1421 25.5642 25.7547 25.724C25.3818 25.8838 25.0041 26.0339 24.6167 26.1743C24.3165 26.2809 24.0163 26.3777 23.716 26.4649C23.4158 26.5714 23.1059 26.644 22.7863 26.6779C22.5587 26.6973 22.3214 26.6973 22.0745 26.6779C21.842 26.6586 21.6047 26.644 21.3578 26.6247C21.198 26.6053 21.043 26.5908 20.8832 26.5714C20.7428 26.5714 20.6023 26.5617 20.4571 26.5472H18.5782C18.278 26.5472 17.9729 26.5181 17.6533 26.4649C17.4063 26.4503 17.1497 26.4068 16.8833 26.3341C16.6364 26.2615 16.3846 26.2276 16.1182 26.2276C15.8519 26.2082 15.5904 26.2276 15.3241 26.2809C15.0577 26.3148 14.7963 26.3535 14.5299 26.3874C14.4573 26.4068 14.3798 26.4213 14.2926 26.4407C14.22 26.4552 14.1522 26.4746 14.0796 26.4939H13.973L12.9174 26.2276C12.9174 26.2276 12.869 26.2034 12.8351 26.1501C12.7818 26.1114 12.7576 26.0872 12.7576 26.0678C12.7382 25.9806 12.714 25.9031 12.6753 25.8305C12.6414 25.7433 12.622 25.6562 12.622 25.5642V25.5158C12.6414 25.3559 12.6607 25.2058 12.6753 25.0654C12.714 24.9056 12.7479 24.7458 12.7818 24.586C12.8351 24.2325 12.8786 23.879 12.9174 23.5303C12.9658 23.1768 12.9949 22.8233 12.9949 22.4699C12.9949 22.1164 12.9513 21.7822 12.8641 21.4626C12.7915 21.2157 12.714 20.9784 12.622 20.7508C12.5542 20.5183 12.5106 20.2714 12.4912 20.0099V19.637C12.5106 19.516 12.5251 19.3901 12.5445 19.269V19.1092C12.5639 19.0366 12.5687 18.9688 12.5687 18.8961C12.5881 18.7363 12.5978 18.5862 12.5978 18.4458V17.9712C12.5784 17.7243 12.5542 17.4821 12.5203 17.2545C12.5009 17.0076 12.4816 16.7606 12.467 16.5136C12.4138 16.0391 12.3702 15.5694 12.3314 15.1093C12.2976 14.6348 12.2879 14.1651 12.3072 13.7099C12.3411 13.1772 12.4041 12.6591 12.4912 12.1458C12.5784 11.6179 12.651 11.0949 12.7043 10.5865C12.7188 10.3008 12.7479 10.0296 12.7818 9.76327C12.8157 9.48241 12.8447 9.20154 12.8641 8.91584V8.65435C12.8641 8.49455 12.869 8.33475 12.8883 8.17495C12.9077 8.01515 12.9755 7.86503 13.1014 7.7246C13.2225 7.60354 13.3629 7.5309 13.5227 7.51637C13.6825 7.47763 13.8423 7.46311 14.0021 7.46311H14.6607C14.9076 7.44374 15.1546 7.43405 15.4016 7.43405C15.6485 7.43405 15.8955 7.44374 16.1425 7.46311C16.3894 7.47763 16.6315 7.50669 16.8591 7.54059C17.0867 7.55996 17.3289 7.56964 17.5758 7.56964C17.7501 7.58417 17.9245 7.59385 18.1036 7.59385H20.4861C20.7525 7.59385 21.0236 7.58417 21.3045 7.56964H22.1519C22.3311 7.55027 22.5054 7.55027 22.6846 7.56964C22.9655 7.58417 23.2366 7.62775 23.503 7.70039C23.7838 7.76818 24.0695 7.84082 24.3504 7.91345C24.6167 7.96672 24.8782 8.01515 25.1446 8.06841C25.4254 8.10715 25.6918 8.19432 25.9387 8.33475C26.1518 8.44128 26.3358 8.57203 26.4956 8.73183C26.6699 8.89163 26.8539 9.03206 27.0476 9.15312C27.2607 9.29839 27.4738 9.43882 27.6868 9.57926C27.8951 9.70032 28.0888 9.86012 28.2679 10.0538C28.5149 10.3395 28.7425 10.6301 28.9556 10.9303C29.1832 11.2305 29.3769 11.5453 29.5367 11.8794C29.8224 12.2523 29.987 12.7123 30.0403 13.2595C30.1129 13.7873 30.1565 14.3103 30.171 14.8188V15.2982C30.1904 15.4531 30.2098 15.6033 30.2243 15.7485V16.0633C30.2437 16.1892 30.2533 16.3103 30.2533 16.4362Z" fill="#293B27"/>
<path d="M68.2033 18.1795C68.2566 18.4119 68.2808 18.6492 68.2808 18.8962V19.6128C68.2808 19.6661 68.2759 19.7242 68.2566 19.7969V19.9567C68.2566 20.3102 68.2469 20.6588 68.2324 21.0123C68.2324 21.3513 68.2033 21.6951 68.15 22.0437C68.1161 22.2229 68.0822 22.3924 68.0435 22.5474C68.0096 22.6878 67.9467 22.8379 67.8595 22.9977C67.6997 23.264 67.506 23.4916 67.2784 23.6853C67.046 23.879 66.8184 24.0776 66.5908 24.2713C66.3777 24.4262 66.1743 24.6054 65.9806 24.7991C65.8015 24.9928 65.6029 25.1671 65.3705 25.3269C65.1235 25.4867 64.862 25.6126 64.5763 25.6998C64.2955 25.787 64.0146 25.8838 63.7289 25.9903C63.3754 26.1308 63.0316 26.2809 62.6974 26.4407C62.3633 26.615 62.0098 26.7554 61.6418 26.862C61.2883 26.954 60.9251 27.0024 60.5522 27.0218C60.1842 27.0557 59.8113 27.0847 59.4433 27.0993H59.3368L58.5668 26.7555C58.3053 26.7022 58.039 26.6538 57.7727 26.6005C57.5257 26.5472 57.2739 26.5085 57.0076 26.494C56.9204 26.494 56.8284 26.4843 56.7412 26.4649H56.4797C56.3199 26.4649 56.1601 26.4552 56.0003 26.4407C55.8405 26.4407 55.6904 26.4213 55.55 26.3874C55.2691 26.3342 55.0028 26.247 54.7558 26.1211C54.5089 26 54.2619 25.8644 54.0149 25.724C53.7534 25.6029 53.4871 25.4625 53.2208 25.3027C52.9738 25.1429 52.7462 24.9589 52.5331 24.7458C52.3201 24.4989 52.1264 24.2422 51.9521 23.9759C51.7729 23.695 51.5986 23.4142 51.4242 23.1333C51.2257 22.7943 51.061 22.4505 50.9206 22.097C50.7802 21.7484 50.6882 21.3755 50.6543 20.9881C50.6543 20.9542 50.6446 20.9009 50.6301 20.8283C50.6301 20.7557 50.6204 20.6879 50.601 20.6152C50.601 20.5474 50.6301 20.4748 50.6833 20.407C50.8383 20.1213 51.061 19.9276 51.3419 19.8211C51.4291 19.8065 51.5017 19.8065 51.555 19.8211C51.6276 19.8211 51.6857 19.8404 51.739 19.8743C51.8116 19.9131 51.8746 19.9276 51.923 19.9276C52.0828 19.9615 52.2426 20.0002 52.4024 20.0341C52.5622 20.0535 52.7172 20.068 52.877 20.0874C53.0368 20.1213 53.1966 20.16 53.3564 20.1939C53.5307 20.2085 53.705 20.2278 53.8842 20.2472C54.044 20.2617 54.2038 20.2714 54.3588 20.2714C54.5379 20.2714 54.7026 20.2908 54.8624 20.3247C55.0415 20.3441 55.2062 20.3779 55.366 20.4312C55.5258 20.4651 55.6904 20.4942 55.8696 20.5087C56.0827 20.5474 56.2909 20.5813 56.504 20.6152C56.717 20.6346 56.9301 20.6685 57.1383 20.7218C57.2448 20.7557 57.3417 20.8041 57.4289 20.8525C57.5354 20.9058 57.6419 20.959 57.7485 21.0123C57.9615 21.1043 58.1649 21.1721 58.3586 21.2254C58.5668 21.2786 58.7993 21.3125 59.0462 21.3319C59.3465 21.3513 59.6564 21.3319 59.9711 21.2786C60.2907 21.2254 60.591 21.1527 60.8718 21.0656C60.9929 21.0317 61.143 20.9784 61.3222 20.9058C61.5159 20.838 61.6127 20.7314 61.6127 20.591C61.6127 20.4506 61.5353 20.3441 61.3755 20.2714C61.235 20.2036 61.0994 20.1504 60.9784 20.1116C60.959 20.0971 60.9445 20.0874 60.9251 20.0874C60.6442 20.0002 60.3489 19.947 60.0535 19.9276C59.7532 19.8937 59.4578 19.8598 59.177 19.8211C58.8622 19.7872 58.5426 19.7533 58.223 19.7145C57.9083 19.6661 57.5887 19.6274 57.2739 19.6128C57.1674 19.5935 57.0512 19.5838 56.9301 19.5838C56.8236 19.5838 56.717 19.5935 56.6105 19.6128H56.0827C55.9035 19.6128 55.7292 19.5935 55.55 19.5596C55.2691 19.5063 55.0125 19.4095 54.7849 19.269C54.5524 19.1238 54.3249 18.993 54.0973 18.8719C53.9375 18.7799 53.768 18.7025 53.5936 18.6298C53.4338 18.562 53.2837 18.4749 53.1433 18.3683C52.9641 18.2279 52.8092 18.0681 52.6687 17.8889C52.5428 17.7146 52.4169 17.5306 52.2959 17.332C52.1893 17.1577 52.0828 16.9834 51.9763 16.8042C51.8891 16.6105 51.8019 16.4265 51.7148 16.2473C51.5211 15.9132 51.3613 15.5791 51.2354 15.245C51.1143 14.8915 51.032 14.5186 50.9981 14.1312C50.9836 13.8649 50.9836 13.6034 50.9981 13.337C51.0175 13.0562 51.061 12.7898 51.1288 12.5429C51.2015 12.262 51.2886 11.986 51.3952 11.7245C51.5211 11.4388 51.6325 11.1676 51.739 10.9013C51.8649 10.6204 51.986 10.3444 52.1119 10.0829C52.2329 9.7972 52.3927 9.5454 52.5864 9.31296C52.814 9.06599 53.0803 8.8723 53.3806 8.73186C53.6808 8.59143 53.9714 8.451 54.2522 8.31057C54.6977 8.06361 55.2062 7.83117 55.7921 7.6181C56.3732 7.40988 56.9204 7.29366 57.4289 7.27429C57.8889 7.25976 58.3586 7.28397 58.8332 7.35661C59.3077 7.40988 59.7871 7.47767 60.2617 7.56968C60.4021 7.5842 60.5377 7.60357 60.6588 7.6181C60.7992 7.63747 60.9445 7.65684 61.0849 7.67137C61.3319 7.71011 61.5885 7.72464 61.85 7.72464C62.1115 7.72464 62.3827 7.73432 62.6442 7.75369C62.9783 7.78759 63.3173 7.85054 63.6514 7.9377C63.9855 8.02487 64.3148 8.1314 64.6296 8.2573C64.8765 8.34447 65.109 8.451 65.3172 8.57206C65.5496 8.69797 65.7579 8.84808 65.9516 9.02241C66.184 9.23548 66.3874 9.47276 66.5617 9.73909C66.7409 10.0006 66.9055 10.2669 67.0653 10.5333C67.2251 10.8335 67.3656 11.1386 67.4866 11.4582C67.6125 11.7778 67.6997 12.1119 67.753 12.4654C67.753 12.4993 67.7626 12.5622 67.782 12.6494C67.7965 12.7559 67.8159 12.8528 67.8353 12.9399C67.8498 13.0271 67.8353 13.124 67.782 13.2305C67.6561 13.6034 67.506 13.831 67.3317 13.9181C67.1525 13.9908 66.9055 14.0682 66.5908 14.1602C66.5181 14.1748 66.4503 14.2038 66.3777 14.2377C66.3051 14.2571 66.2276 14.2716 66.1404 14.291C65.908 14.3782 65.6707 14.4508 65.4237 14.5041C65.1768 14.5573 64.9298 14.5719 64.6828 14.5573C64.4698 14.538 64.2664 14.5089 64.0727 14.475C63.8984 14.4217 63.7144 14.3878 63.5207 14.3685C63.4141 14.3539 63.3076 14.3443 63.2011 14.3443C63.0945 14.3249 62.988 14.3104 62.8815 14.291C62.5473 14.2571 62.2035 14.2135 61.85 14.1602C61.5159 14.107 61.206 13.9908 60.9251 13.8164C60.712 13.6905 60.528 13.5501 60.3682 13.3903C60.2278 13.2305 60.0438 13.0998 59.8113 12.9932C59.4578 12.8722 59.0995 12.8528 58.7266 12.9399C58.6201 12.9738 58.5087 13.0271 58.3828 13.0998C58.2763 13.153 58.2327 13.2499 58.2521 13.3903C58.2715 13.5646 58.3392 13.7002 58.4651 13.7874C58.6056 13.8745 58.7363 13.9569 58.8622 14.0247C59.0898 14.1312 59.3174 14.2184 59.5499 14.291C59.7968 14.3443 60.0341 14.3782 60.2617 14.3975C60.4554 14.4121 60.6442 14.4217 60.8186 14.4217C61.0123 14.4217 61.1963 14.4121 61.3755 14.3975H62.0098C62.2229 14.3975 62.4311 14.4121 62.6442 14.4508C62.9299 14.4653 63.2011 14.5186 63.4674 14.6058C63.7483 14.6978 64.0291 14.7752 64.3148 14.8479C64.6828 14.9689 65.0557 15.0852 65.4237 15.1917C65.8111 15.2982 66.1743 15.4629 66.5084 15.6953C66.9152 15.9568 67.2687 16.32 67.5689 16.78C67.8885 17.2352 68.0968 17.7049 68.2033 18.1795Z" fill="#293B27"/>
<path d="M96.9628 16.4363C96.9773 16.5573 96.987 16.6736 96.987 16.7801C96.9676 17.1142 96.9337 17.4387 96.8805 17.7583C96.8272 18.0779 96.7933 18.3926 96.7739 18.7122C96.7594 18.8333 96.7497 18.9592 96.7497 19.0803V19.4773C96.7691 19.6178 96.7739 19.7679 96.7739 19.9277C96.7739 20.0681 96.7691 20.2182 96.7497 20.378C96.7304 20.5378 96.6965 20.7073 96.6432 20.8816C96.6093 21.0414 96.5706 21.2061 96.5367 21.3853C96.5028 21.5063 96.4689 21.6419 96.4301 21.7823C96.4156 21.9228 96.3769 22.0535 96.3236 22.1794C96.2558 22.3392 96.1735 22.4942 96.0863 22.654C95.9991 22.7944 95.9023 22.9348 95.7958 23.0801C95.2486 23.8549 94.5706 24.4747 93.7571 24.9299C93.4036 25.1091 93.0356 25.2737 92.6482 25.4335C92.2753 25.5933 91.9073 25.7435 91.5344 25.8839C91.2536 25.9904 90.963 26.097 90.6628 26.2035C90.3771 26.2907 90.0962 26.3439 89.8153 26.3584C89.5684 26.3778 89.3214 26.3778 89.0745 26.3584C88.842 26.3439 88.6144 26.3246 88.3868 26.31C88.227 26.2907 88.0672 26.281 87.9074 26.281C87.767 26.2616 87.6266 26.2471 87.4861 26.2277H85.6315C85.3312 26.2277 85.031 26.2035 84.7308 26.1502C84.4693 26.1309 84.2029 26.0873 83.9366 26.0146C83.6751 25.9468 83.4088 25.9129 83.1425 25.9129C82.8616 25.8936 82.5807 25.9129 82.295 25.9614C82.0335 26.0001 81.7672 26.0437 81.5009 26.097C81.4331 26.1115 81.3507 26.1309 81.2636 26.1502C81.1958 26.1502 81.1231 26.1599 81.0505 26.1744L80.0723 25.9372C80.0578 25.8645 80.0288 25.8064 79.9949 25.7531C79.9755 25.6805 79.9658 25.6176 79.9658 25.5643C79.9852 25.4093 80.0045 25.2495 80.0191 25.0897C80.0578 24.9299 80.0917 24.7798 80.1256 24.6394C80.1789 24.2714 80.2225 23.9082 80.2564 23.5547C80.3096 23.1866 80.3387 22.8235 80.3387 22.47C80.3387 22.0826 80.2951 21.7194 80.2079 21.3853C80.1353 21.1528 80.0578 20.9252 79.9658 20.6976C79.898 20.4652 79.8544 20.2376 79.8351 20.01V19.6662C79.8544 19.5403 79.869 19.4144 79.8883 19.2933V19.1335C79.9077 19.0657 79.9125 18.9931 79.9125 18.9205C79.9319 18.7655 79.9416 18.6057 79.9416 18.4459V17.9423C79.9222 17.7147 79.898 17.4774 79.8641 17.2304C79.8447 16.9835 79.8254 16.7413 79.8108 16.5138C79.7576 16.0392 79.714 15.5695 79.6753 15.1094C79.6414 14.6349 79.6317 14.1749 79.651 13.7342C79.6849 13.2064 79.7479 12.6834 79.8351 12.1749C79.9222 11.6423 79.9949 11.1241 80.0481 10.6108C80.0627 10.33 80.0917 10.0491 80.1256 9.76338C80.1595 9.48252 80.1886 9.20166 80.2079 8.91596V8.31065C80.2225 8.16538 80.2757 8.04432 80.3629 7.93778C80.4549 7.85062 80.5517 7.80704 80.6583 7.80704C80.7793 7.78767 80.9004 7.77798 81.0263 7.77798H81.7139C81.9464 7.76345 82.1836 7.75377 82.4306 7.75377C82.6776 7.75377 82.9149 7.76345 83.1425 7.77798C83.3894 7.79735 83.6315 7.82156 83.8591 7.8603C84.1061 7.87483 84.3434 7.88451 84.571 7.88451C84.7501 7.90388 84.9245 7.91357 85.1036 7.91357H87.5103C87.796 7.91357 88.0672 7.90388 88.3336 7.88451H89.1519C89.3311 7.86515 89.5054 7.86515 89.6798 7.88451C89.9655 7.90388 90.2366 7.94747 90.503 8.01526C90.7693 8.0879 91.0405 8.15085 91.3213 8.20412C91.5683 8.27191 91.8153 8.32518 92.0622 8.35907C92.3286 8.39781 92.5755 8.47529 92.8031 8.6012C93.0162 8.70773 93.2002 8.83848 93.36 8.99828C93.5392 9.15324 93.7232 9.29851 93.9169 9.41957C94.1106 9.54547 94.3043 9.67622 94.498 9.81665C94.6917 9.94255 94.8805 10.0927 95.0549 10.267C95.2825 10.5333 95.5052 10.8142 95.7183 11.1144C95.9459 11.3953 96.1396 11.7052 96.2994 12.0393C96.5657 12.3928 96.7207 12.8238 96.7739 13.3371C96.8272 13.8504 96.8659 14.3589 96.8805 14.8722V15.3516C96.8998 15.492 96.9192 15.6324 96.9337 15.7729C96.9337 15.8455 96.9434 15.9423 96.9628 16.0634V16.4363Z" fill="#293B27"/>
<path d="M77.4474 25.3027C77.4668 25.4431 77.4668 25.5836 77.4474 25.724C77.4329 25.8644 77.3603 25.9806 77.2344 26.0678C77.1666 26.1211 77.0794 26.1598 76.9729 26.1743C76.8857 26.1937 76.7937 26.2082 76.7065 26.2276C76.6 26.247 76.4935 26.2567 76.3918 26.2567H75.7284C75.5153 26.2712 75.3022 26.2809 75.094 26.2809C74.8809 26.2615 74.6679 26.247 74.4596 26.2276H74.2708C74.2175 26.2276 74.1642 26.2179 74.1158 26.2034H73.5589C73.3798 26.2034 73.1958 26.1937 73.0021 26.1743H72.818C72.7648 26.1743 72.7018 26.1647 72.6292 26.1501H72.2612C72.1353 26.1308 72.0142 26.1211 71.8883 26.1211C71.6946 26.1211 71.5009 26.1404 71.3072 26.1743C71.1329 26.1937 70.944 26.2082 70.7503 26.2276C70.7164 26.1404 70.6825 26.0533 70.6438 25.9613C70.6099 25.8741 70.5905 25.7869 70.5905 25.6998C70.576 25.6465 70.5663 25.5933 70.5663 25.54C70.5857 25.4673 70.6002 25.3996 70.6196 25.3269V25.1671C70.6728 24.6393 70.7261 24.1018 70.7794 23.5546C70.8326 23.0945 70.8569 22.62 70.8569 22.1261C70.8762 21.6321 70.8569 21.1479 70.8036 20.6685C70.7697 20.2472 70.6825 19.8404 70.5421 19.453C70.4501 19.1867 70.3387 18.9397 70.1934 18.7121C70.0724 18.4652 69.9852 18.1988 69.9319 17.918C69.9126 17.8114 69.9029 17.7049 69.9029 17.5984C69.9029 17.4918 69.9126 17.3853 69.9319 17.2836V15.9858C69.9319 15.7921 69.9416 15.5984 69.9562 15.3999C69.9755 15.2449 69.9997 15.0851 70.0385 14.9253C70.0724 14.751 70.0966 14.5815 70.116 14.4217C70.1499 14.0876 70.1692 13.7535 70.1692 13.4193C70.1692 13.0852 70.1789 12.7559 70.1934 12.4363C70.2128 12.2959 70.2322 12.1651 70.2467 12.0392C70.2661 11.8988 70.2951 11.7584 70.329 11.6179C70.3629 11.3371 70.3968 11.0611 70.4356 10.7947C70.4695 10.5139 70.4598 10.233 70.4065 9.9473C70.4065 9.89888 70.3968 9.83593 70.3823 9.76329C70.3629 9.6955 70.3387 9.61318 70.3 9.52601C70.2467 9.33231 70.2031 9.13862 70.1692 8.94492C70.1353 8.73185 70.1789 8.54784 70.3 8.38804C70.4065 8.26213 70.5469 8.19434 70.7261 8.17497C70.9198 8.16044 71.0893 8.13139 71.2297 8.09749C71.53 8.02485 71.8205 7.94737 72.1014 7.86021C72.3822 7.75368 72.6728 7.69072 72.973 7.67135C73.2926 7.63746 73.6122 7.64714 73.927 7.70041C74.2466 7.75368 74.5565 7.80694 74.8567 7.86021C74.9971 7.87474 75.1037 7.89411 75.1715 7.91348C75.2586 7.928 75.3555 7.94737 75.462 7.96674C75.5686 7.98127 75.6751 8.00064 75.7816 8.01517C75.8349 8.01517 75.9317 8.02485 76.0722 8.04422C76.2126 8.04422 76.353 8.05391 76.4935 8.06843C76.6387 8.0878 76.7598 8.14107 76.8663 8.22824C76.9729 8.3154 77.0261 8.43162 77.0261 8.57205C77.0407 8.69795 77.0503 8.81901 77.0503 8.94492V9.07566C77.0358 9.58896 76.9729 10.0974 76.8663 10.6107C76.7792 11.124 76.7356 11.6325 76.7356 12.1458C76.7356 12.4266 76.7501 12.7123 76.7888 12.9932C76.8227 13.2595 76.8566 13.5307 76.8905 13.8164C76.9099 13.9714 76.939 14.1312 76.9729 14.291C77.0068 14.4314 77.0261 14.5815 77.0261 14.7413C77.0261 14.935 77.0068 15.1384 76.9729 15.3515C76.9535 15.5452 76.9293 15.7389 76.8905 15.9326C76.876 16.073 76.847 16.2231 76.8131 16.3829C76.7937 16.5233 76.7792 16.6638 76.7598 16.8042C76.7404 17.0851 76.7356 17.3805 76.7356 17.6807C76.7501 17.9809 76.7695 18.2715 76.7888 18.5523V18.7654C76.8034 18.8332 76.8131 18.9155 76.8131 19.0027C76.847 19.516 76.8663 20.0438 76.8663 20.591C76.8857 21.1188 76.9293 21.6467 76.9971 22.1793C77.0697 22.6733 77.1569 23.1769 77.2634 23.6853C77.3699 24.1986 77.4329 24.7119 77.4474 25.2204V25.3027Z" fill="#293B27"/>
<path d="M117.703 25.6465C117.596 25.7531 117.499 25.8644 117.412 25.9903C117.325 26.0969 117.218 26.184 117.093 26.2567C116.991 26.3099 116.884 26.3342 116.778 26.3342C116.691 26.3535 116.599 26.3681 116.511 26.3874C116.337 26.4213 116.168 26.4649 116.008 26.5182C115.867 26.5908 115.708 26.6538 115.533 26.7022C115.286 26.7748 115.039 26.8039 114.792 26.7845C114.545 26.7845 114.298 26.7748 114.052 26.7555C113.558 26.6877 113.035 26.5618 112.487 26.3874C112.313 26.3535 112.119 26.3148 111.906 26.2809C111.693 26.2276 111.519 26.1598 111.378 26.0678C111.272 26 111.185 25.9177 111.112 25.8305C111.059 25.724 110.996 25.6175 110.928 25.5158C110.894 25.4432 110.865 25.3705 110.846 25.3027C110.831 25.2301 110.802 25.1623 110.768 25.0897C110.662 24.8088 110.531 24.5086 110.371 24.189C110.352 24.1551 110.328 24.0921 110.294 24.0049C110.274 23.9178 110.25 23.8548 110.211 23.8209C110.037 23.8209 109.858 23.8306 109.684 23.8451H109.127C108.986 23.8645 108.846 23.8742 108.705 23.8742C108.565 23.8742 108.429 23.879 108.308 23.8984C108.076 23.9323 107.858 23.9953 107.645 24.0824C107.451 24.1551 107.248 24.2083 107.035 24.2422C106.875 24.2761 106.71 24.2955 106.531 24.2955C106.376 24.2955 106.216 24.2858 106.057 24.2713H105.926C105.873 24.2713 105.756 24.2616 105.582 24.2422C105.422 24.2277 105.253 24.218 105.078 24.218C104.899 24.1986 104.788 24.2083 104.735 24.2422C104.696 24.2616 104.662 24.3149 104.628 24.402C104.609 24.4892 104.594 24.5618 104.575 24.6151C104.502 24.7555 104.449 24.9056 104.415 25.0654C104.381 25.2059 104.347 25.356 104.309 25.5158C104.275 25.7095 104.221 25.9129 104.154 26.1211C104.1 26.3148 103.974 26.4843 103.781 26.6247C103.694 26.6973 103.587 26.7409 103.461 26.7555C103.359 26.7942 103.243 26.8184 103.117 26.8378C102.996 26.8717 102.856 26.891 102.696 26.891H102.192C101.945 26.8717 101.698 26.8475 101.451 26.8087C101.204 26.7748 100.958 26.7312 100.711 26.678C100.551 26.6441 100.381 26.6005 100.207 26.5472C100.047 26.5085 99.8874 26.494 99.7324 26.494C99.5387 26.4746 99.345 26.4746 99.1465 26.494C98.9528 26.5085 98.7591 26.5375 98.5654 26.5714H98.4056C98.3523 26.5908 98.299 26.6005 98.2506 26.6005C98.2119 26.615 98.1683 26.6053 98.115 26.5714C98.0618 26.5375 98.0375 26.5085 98.0375 26.494L97.6937 25.6998C97.6744 25.6611 97.6744 25.6175 97.6937 25.5642V25.54C97.6744 25.5739 97.6744 25.5594 97.6937 25.4867C97.7083 25.4141 97.7179 25.3705 97.7179 25.356C97.7373 25.2688 97.7567 25.1768 97.7712 25.0897C97.8051 25.0025 97.8342 24.9153 97.8535 24.8233C97.9552 24.3488 98.0182 23.8548 98.0375 23.3415C98.0521 22.8331 98.1586 22.344 98.3523 21.8888C98.4782 21.5886 98.6283 21.3029 98.8026 21.0414C98.9963 20.775 99.1658 20.5039 99.3063 20.2182C99.4661 19.9179 99.5968 19.6128 99.7033 19.2932C99.8292 18.9591 99.96 18.6298 100.1 18.3151C100.294 17.9083 100.483 17.4919 100.657 17.0706C100.851 16.6444 101.02 16.2135 101.161 15.7728H101.185V15.7486C101.311 15.4096 101.374 15.0513 101.374 14.659C101.389 14.2716 101.408 13.8842 101.422 13.4968C101.442 13.1094 101.529 12.7366 101.689 12.3831C101.882 11.9424 102.096 11.5114 102.323 11.0901C102.57 10.664 102.793 10.233 102.987 9.79237C103.127 9.50666 103.243 9.20643 103.33 8.89167C103.417 8.55754 103.597 8.28152 103.858 8.06845C103.965 7.96676 104.091 7.89413 104.231 7.86023C104.391 7.80696 104.541 7.76338 104.681 7.72464C104.928 7.63748 105.175 7.60358 105.422 7.61811C105.689 7.63748 105.95 7.65685 106.216 7.67137C106.41 7.71011 106.594 7.73433 106.773 7.7537C106.967 7.7537 107.161 7.74401 107.354 7.72464C107.529 7.71011 107.698 7.68106 107.858 7.64716C108.018 7.59389 108.173 7.55031 108.333 7.51642C108.86 7.40988 109.408 7.3663 109.974 7.38083C110.221 7.4002 110.468 7.43409 110.715 7.48736C110.981 7.52126 111.219 7.61811 111.432 7.77791C111.625 7.95708 111.766 8.17499 111.853 8.44132C111.96 8.70766 112.047 8.95462 112.119 9.18222C112.226 9.51635 112.313 9.85048 112.381 10.1894C112.473 10.5042 112.579 10.8238 112.7 11.1386C112.807 11.371 112.914 11.5986 113.02 11.831C113.141 12.0393 113.257 12.262 113.364 12.4896C113.572 12.9303 113.761 13.3806 113.921 13.8407C114.095 14.3007 114.289 14.751 114.502 15.1917C114.855 15.6324 115.093 16.1602 115.214 16.78C115.354 17.395 115.461 18.0245 115.533 18.6589C115.62 19.2932 115.79 19.8647 116.037 20.378V20.4312C116.105 20.7654 116.197 21.1043 116.298 21.4385C116.424 21.7532 116.521 22.0922 116.594 22.4408C116.642 22.7072 116.681 22.988 116.695 23.2883C116.715 23.574 116.768 23.8451 116.855 24.1115C116.894 24.2858 116.942 24.4456 117.015 24.586C117.102 24.7265 117.185 24.8766 117.252 25.0364C117.272 25.0558 117.286 25.08 117.306 25.1187C117.325 25.1526 117.34 25.1865 117.359 25.2204H117.412C117.446 25.2398 117.475 25.2688 117.49 25.3027C117.509 25.3366 117.528 25.356 117.543 25.356H117.436C117.388 25.3705 117.359 25.3996 117.359 25.4335C117.34 25.4867 117.34 25.5206 117.359 25.54C117.412 25.4867 117.456 25.4432 117.49 25.4093C117.582 25.3172 117.635 25.3463 117.649 25.4867C117.669 25.6126 117.625 25.6707 117.519 25.6707C117.538 25.6707 117.553 25.6804 117.572 25.6998C117.586 25.7143 117.635 25.6998 117.703 25.6465Z" fill="#293B27"/>
<path d="M50.5428 25.6998C50.5428 25.6998 50.6058 25.6998 50.6784 25.6465C50.5719 25.7531 50.475 25.8644 50.3879 25.9903C50.2959 26.0969 50.1942 26.184 50.0683 26.2567C49.9617 26.3099 49.8552 26.3342 49.7487 26.3342C49.6615 26.3535 49.5743 26.3681 49.4872 26.3874C49.308 26.4213 49.1434 26.4649 48.9836 26.5182C48.8431 26.5908 48.6833 26.6538 48.509 26.7022C48.262 26.7748 48.0151 26.8039 47.7633 26.7845C47.5211 26.7845 47.2693 26.7748 47.0224 26.7555C46.5284 26.6877 46.0103 26.5618 45.4631 26.3874C45.2839 26.3535 45.0902 26.3148 44.882 26.2809C44.6689 26.2276 44.4946 26.1598 44.3493 26.0678C44.2476 26 44.1556 25.9177 44.0878 25.8305C44.0346 25.724 43.9716 25.6175 43.899 25.5158C43.8651 25.4432 43.8409 25.3705 43.8215 25.3027C43.8021 25.2301 43.7779 25.1623 43.744 25.0897C43.6375 24.8088 43.5019 24.5086 43.3469 24.189C43.3276 24.1551 43.3034 24.0921 43.2646 24.0049C43.2501 23.9178 43.221 23.8548 43.1871 23.8209C43.008 23.8209 42.8336 23.8306 42.6593 23.8451H42.1024C41.962 23.8645 41.8167 23.8742 41.6763 23.8742C41.5359 23.8742 41.4051 23.879 41.2792 23.8984C41.0516 23.9323 40.8289 23.9953 40.6207 24.0824C40.427 24.1551 40.2236 24.2083 40.0105 24.2422C39.8507 24.2761 39.6861 24.2955 39.5069 24.2955C39.3471 24.2955 39.1873 24.2858 39.0323 24.2713H38.8967C38.8435 24.2713 38.7321 24.2616 38.5529 24.2422C38.398 24.2277 38.2285 24.218 38.0493 24.218C37.875 24.1986 37.7588 24.2083 37.7055 24.2422C37.6716 24.2616 37.6377 24.3149 37.6038 24.402C37.5844 24.4892 37.5651 24.5618 37.5505 24.6151C37.4779 24.7555 37.4246 24.9056 37.3907 25.0654C37.3568 25.2059 37.3181 25.356 37.2842 25.5158C37.2503 25.7095 37.197 25.9129 37.1244 26.1211C37.0711 26.3148 36.9501 26.4843 36.7564 26.6247C36.6644 26.6973 36.5627 26.7409 36.4368 26.7555C36.3302 26.7942 36.214 26.8184 36.093 26.8378C35.9671 26.8717 35.8266 26.891 35.6668 26.891H35.1681C34.9211 26.8717 34.6741 26.8475 34.4272 26.8087C34.1802 26.7748 33.9332 26.7312 33.6863 26.678C33.5265 26.6441 33.357 26.6005 33.1827 26.5472C33.0229 26.5085 32.8631 26.494 32.7033 26.494C32.5096 26.4746 32.3159 26.4746 32.1222 26.494C31.9285 26.5085 31.7348 26.5375 31.5411 26.5714H31.3813C31.328 26.5908 31.2747 26.6005 31.2215 26.6005C31.1876 26.615 31.144 26.6053 31.0907 26.5714C31.0375 26.5375 31.0084 26.5085 31.0084 26.494L30.6646 25.6998C30.6501 25.6611 30.6501 25.6175 30.6646 25.5642V25.54C30.6501 25.5739 30.6501 25.5594 30.6646 25.4867C30.684 25.4141 30.6936 25.3705 30.6936 25.356C30.713 25.2688 30.7275 25.1768 30.7469 25.0897C30.7808 25.0025 30.8099 24.9153 30.8244 24.8233C30.9309 24.3488 30.9939 23.8548 31.0084 23.3415C31.0278 22.8331 31.1343 22.344 31.328 21.8888C31.4539 21.5886 31.604 21.3029 31.7783 21.0414C31.972 20.775 32.1415 20.5039 32.282 20.2182C32.4418 19.9179 32.5725 19.6128 32.679 19.2932C32.8001 18.9591 32.9357 18.6298 33.0761 18.3151C33.2698 17.9083 33.4538 17.4919 33.633 17.0706C33.8267 16.6444 33.9913 16.2135 34.1318 15.7728H34.1608V15.7486C34.2819 15.4096 34.3448 15.0513 34.3448 14.659C34.3642 14.2716 34.3787 13.8842 34.3981 13.4968C34.4175 13.1094 34.5046 12.7366 34.6644 12.3831C34.8581 11.9424 35.0712 11.5114 35.2988 11.0901C35.5458 10.664 35.7685 10.233 35.9622 9.79237C36.1026 9.50666 36.214 9.20643 36.306 8.89167C36.3932 8.55754 36.5675 8.28152 36.8339 8.06845C36.9404 7.96676 37.0615 7.89413 37.2067 7.86023C37.3617 7.80696 37.5118 7.76338 37.6522 7.72464C37.8992 7.63748 38.1462 7.60358 38.398 7.61811C38.6595 7.63748 38.9258 7.65685 39.1873 7.67137C39.3858 7.71011 39.5698 7.73433 39.7442 7.7537C39.9379 7.7537 40.1316 7.74401 40.3301 7.72464C40.5044 7.71011 40.6739 7.68106 40.8289 7.64716C40.9887 7.59389 41.1485 7.55031 41.3083 7.51642C41.8361 7.40988 42.3833 7.3663 42.9499 7.38083C43.1968 7.4002 43.4438 7.43409 43.6908 7.48736C43.9523 7.52126 44.1944 7.61811 44.4026 7.77791C44.5963 7.95708 44.7416 8.17499 44.8287 8.44132C44.9353 8.70766 45.0224 8.95462 45.0902 9.18222C45.1968 9.51635 45.2839 9.85048 45.3566 10.1894C45.4437 10.5042 45.5503 10.8238 45.6762 11.1386C45.7827 11.371 45.8844 11.5986 45.9909 11.831C46.1168 12.0393 46.2282 12.262 46.3347 12.4896C46.5478 12.9303 46.7318 13.3806 46.8916 13.8407C47.0708 14.3007 47.2645 14.751 47.4727 15.1917C47.8262 15.6324 48.0635 16.1602 48.1894 16.78C48.3298 17.395 48.4364 18.0245 48.509 18.6589C48.5962 19.2932 48.7608 19.8647 49.0078 20.378V20.4312C49.0804 20.7654 49.1676 21.1043 49.2741 21.4385C49.4 21.7532 49.4969 22.0922 49.5646 22.4408C49.6179 22.7072 49.6518 22.988 49.6712 23.2883C49.6906 23.574 49.7438 23.8451 49.831 24.1115C49.8649 24.2858 49.9181 24.4456 49.9908 24.586C50.0779 24.7265 50.1554 24.8766 50.2281 25.0364C50.2426 25.0558 50.262 25.08 50.2813 25.1187C50.2959 25.1526 50.3152 25.1865 50.3346 25.2204H50.3879C50.4218 25.2398 50.446 25.2688 50.4653 25.3027C50.4847 25.3366 50.4992 25.356 50.5186 25.356H50.4121C50.3588 25.3705 50.3346 25.3996 50.3346 25.4335C50.3152 25.4867 50.3152 25.5206 50.3346 25.54L50.4653 25.4093C50.5525 25.3172 50.6058 25.3463 50.6251 25.4867C50.6397 25.6126 50.5961 25.6707 50.4944 25.6707C50.5089 25.6707 50.5283 25.6804 50.5428 25.6998Z" fill="#293B27"/>
<path d="M19.7802 21.1092C19.94 21.0753 20.0998 21.0463 20.2547 21.0318C20.4145 21.0124 20.5792 20.9979 20.7583 20.9785C21.1118 20.9446 21.475 20.9059 21.843 20.872C22.2159 20.8187 22.5404 20.6589 22.8212 20.3974C23.0875 20.1698 23.2716 19.8938 23.3781 19.579C23.4846 19.2594 23.5476 18.9253 23.5621 18.5718C23.596 18.1311 23.5718 17.6711 23.4846 17.1965C23.412 16.7026 23.3103 16.2426 23.165 15.8213C23.0924 15.5743 23.0246 15.337 22.952 15.1046C22.8793 14.8576 22.7825 14.6204 22.6614 14.3879C22.5742 14.2281 22.4774 14.0974 22.3709 13.9908C22.245 13.8649 22.1239 13.7681 21.998 13.7003C21.8576 13.6277 21.6978 13.5938 21.5234 13.5938C21.3491 13.5938 21.1699 13.6035 20.9956 13.618C20.8552 13.618 20.7486 13.6277 20.676 13.6422H20.1482C20.1143 13.6422 20.032 13.6228 19.9109 13.5889C19.8237 13.5696 19.7802 13.5647 19.7802 13.5647C19.7802 13.5647 19.7898 13.5986 19.8044 13.6712C19.8383 13.7584 19.8673 13.831 19.8818 13.8843C19.8818 14.0441 19.8915 14.2039 19.9061 14.3589C19.94 14.4993 19.969 14.6494 19.9835 14.8092C20.0368 15.1434 20.0707 15.4775 20.0901 15.8165C20.1094 16.1506 20.0901 16.4847 20.0368 16.8237C20.0174 16.998 19.9835 17.1772 19.9303 17.3515C19.8964 17.5258 19.8576 17.6953 19.8237 17.8551C19.7705 18.0149 19.7269 18.1796 19.693 18.3587C19.6591 18.5185 19.6204 18.6783 19.5865 18.8333C19.5526 19.2062 19.5526 19.5839 19.5865 19.9713C19.6204 20.3441 19.6833 20.7218 19.7705 21.1092H19.7802Z" fill="#FAF9F6"/>
<path d="M39.7018 18.7511L39.6243 18.8819C39.6243 18.9351 39.6146 18.9787 39.6001 19.0126C39.6001 19.0998 39.5469 19.1385 39.4403 19.1192H39.3628C39.3628 19.1192 39.3289 19.0853 39.3096 19.0659C39.203 19.0126 39.203 18.9158 39.3096 18.7753C39.3289 18.5477 39.3338 18.3153 39.3338 18.0877C39.3532 17.8601 39.3871 17.6277 39.4403 17.4001C39.4936 17.0805 39.5808 16.7754 39.7067 16.4752C39.8471 16.1556 39.9875 15.8505 40.1279 15.5503C40.2345 15.2839 40.3507 15.0128 40.4718 14.7319C40.4911 14.7125 40.496 14.6689 40.496 14.6012C40.5153 14.5479 40.5202 14.5043 40.5202 14.4704C40.5735 14.2961 40.6606 14.2428 40.7865 14.3106C40.7865 14.3106 40.7962 14.3203 40.8107 14.3348C40.8107 14.3542 40.8204 14.359 40.8349 14.359C40.8882 14.5527 40.9415 14.7464 40.9947 14.9401C41.048 15.1145 41.1013 15.2936 41.1545 15.468C41.2078 15.6617 41.2417 15.8457 41.2611 16.0248C41.2805 16.1992 41.2805 16.388 41.2611 16.5817V17.0853C41.2611 17.1725 41.2805 17.2693 41.3143 17.3759C41.3482 17.5018 41.4015 17.6228 41.4741 17.7487C41.5613 17.8553 41.6339 17.9715 41.6872 18.0926C41.7405 18.2524 41.7841 18.4122 41.818 18.5671C41.8519 18.7076 41.8906 18.848 41.9245 18.9884C41.9245 19.0078 41.9148 19.0223 41.9003 19.0417V19.0949C41.8276 19.1676 41.7599 19.1918 41.6872 19.1724C41.6146 19.1531 41.5468 19.1385 41.4741 19.1192C41.387 19.0853 41.324 19.0659 41.2901 19.0659C41.0238 19.032 40.7623 18.9884 40.496 18.9351C40.249 18.8625 39.9827 18.8044 39.7018 18.7511Z" fill="#FAF9F6"/>
<path d="M86.8053 21.1352C86.9651 21.1013 87.1249 21.0722 87.2799 21.0577C87.4397 21.0384 87.6043 21.0238 87.7835 21.0045C88.137 20.9706 88.5002 20.9318 88.8682 20.8979C89.2362 20.8447 89.5655 20.6849 89.8464 20.4234C90.1127 20.1958 90.2967 19.9197 90.4032 19.605C90.5098 19.2854 90.5727 18.9513 90.5872 18.5978C90.6211 18.1571 90.5969 17.6971 90.5098 17.2225C90.4371 16.7286 90.3354 16.2685 90.1902 15.8472C90.1175 15.6003 90.0497 15.363 89.9771 15.1306C89.9045 14.8836 89.8076 14.6463 89.6866 14.4139C89.5994 14.2541 89.5025 14.1233 89.396 14.0168C89.2701 13.8909 89.149 13.794 89.0231 13.7263C88.8827 13.6536 88.7229 13.6197 88.5486 13.6197C88.3743 13.6197 88.1951 13.6294 88.0208 13.6439C87.8803 13.6439 87.7738 13.6536 87.7012 13.6681H87.1733C87.1394 13.6681 87.0571 13.6488 86.936 13.6149C86.8489 13.5955 86.8053 13.5907 86.8053 13.5907C86.8053 13.5907 86.815 13.6246 86.8295 13.6972C86.8634 13.7844 86.8925 13.857 86.907 13.9103C86.907 14.0701 86.9167 14.2299 86.9312 14.3848C86.9651 14.5253 86.9942 14.6754 87.0087 14.8352C87.0619 15.1693 87.0958 15.5034 87.1152 15.8424C87.1346 16.1765 87.1152 16.5107 87.0619 16.8496C87.0426 17.024 87.0087 17.2031 86.9554 17.3775C86.9215 17.5518 86.8828 17.7213 86.8489 17.8811C86.7956 18.0409 86.752 18.2055 86.7181 18.3847C86.6842 18.5445 86.6455 18.7043 86.6116 18.8592C86.5777 19.2321 86.5777 19.6098 86.6116 19.9972C86.6455 20.3701 86.7085 20.7478 86.7956 21.1352H86.8053Z" fill="#FAF9F6"/>
<path d="M107.733 15.0176C107.627 15.2452 107.52 15.4679 107.414 15.681C107.288 15.9812 107.167 16.2815 107.041 16.5817C106.915 16.8626 106.828 17.1628 106.775 17.4824C106.741 17.6422 106.712 17.802 106.697 17.957C106.678 18.1168 106.673 18.2766 106.673 18.4315H106.726C106.993 18.4654 107.254 18.5187 107.52 18.5913C107.801 18.664 108.087 18.7172 108.368 18.7511C108.44 18.7705 108.508 18.7947 108.581 18.8286C108.547 18.6543 108.494 18.4412 108.421 18.1942C108.368 18.0683 108.295 17.957 108.208 17.8504C108.135 17.7245 108.082 17.5938 108.048 17.4533C107.995 17.3274 107.971 17.2161 107.971 17.1095V16.5817C107.99 16.4074 107.99 16.2379 107.971 16.0781C107.951 15.9038 107.927 15.7246 107.893 15.5503C107.821 15.3566 107.767 15.1774 107.733 15.0224V15.0176Z" fill="#FAF9F6"/>
</svg>
